<?xml version="1.0" encoding="UTF-8"?>
<!-- Generator: visioncortex VTracer -->
<svg id="svg" version="1.1" xmlns="http://www.w3.org/2000/svg" style="display: block;" viewBox="0 0 600 600"><path d="M0 0 C1.03640625 0.19335938 2.0728125 0.38671875 3.140625 0.5859375 C49.00282169 9.30621433 91.72088441 28.61163467 128 58 C128.51353027 58.41056641 129.02706055 58.82113281 129.55615234 59.24414062 C145.73395549 72.25835113 161.65313659 87.47634698 173.80664062 104.35791016 C175.06526701 106.0898089 176.36396455 107.78553314 177.671875 109.48046875 C185.30512194 119.47207545 191.75820013 130.09668885 198 141 C198.58225342 142.01344482 198.58225342 142.01344482 199.17626953 143.04736328 C214.24451623 169.53115529 223.43433597 199.16804078 229 229 C229.17789063 229.90492188 229.35578125 230.80984375 229.5390625 231.7421875 C235.09990814 261.13522873 234.76535434 295.67189312 229 325 C228.80664062 326.03640625 228.61328125 327.0728125 228.4140625 328.140625 C224.04038664 351.14292028 217.24022545 373.69716281 207.05224609 394.81787109 C206.32714641 396.32156969 205.61188679 397.83003971 204.90478516 399.34228516 C196.19842053 417.95705443 185.55004391 435.63518915 172.33007812 451.40966797 C170.9995597 453.00052646 169.69468292 454.61007494 168.390625 456.22265625 C162.15337959 463.82006259 155.36268036 470.84152626 148.4375 477.8125 C147.57527832 478.68398682 146.71305664 479.55547363 145.82470703 480.45336914 C130.19576911 496.00684069 112.10144582 509.05967999 93 520 C91.60394531 520.86625 91.60394531 520.86625 90.1796875 521.75 C54.05582773 543.98006755 7.71819996 557.00124759 -34.6328125 557.203125 C-35.61958481 557.21013931 -36.60635712 557.21715363 -37.62303162 557.22438049 C-40.7904013 557.24179397 -43.9575842 557.24823272 -47.125 557.25 C-48.74569901 557.25101212 -48.74569901 557.25101212 -50.3991394 557.25204468 C-65.81656395 557.23671565 -80.82044961 556.94489654 -96 554 C-97.36825928 553.75056641 -97.36825928 553.75056641 -98.76416016 553.49609375 C-156.30542992 542.84578161 -207.47304507 514.47328076 -248.8125 473.4375 C-249.68414795 472.57519775 -250.5557959 471.71289551 -251.45385742 470.82446289 C-257.38986168 464.85908646 -262.7881499 458.60421761 -268 452 C-268.53407471 451.33057373 -269.06814941 450.66114746 -269.6184082 449.97143555 C-278.36173543 438.90890753 -285.85011586 427.14047362 -293 415 C-293.57959473 414.02111816 -293.57959473 414.02111816 -294.17089844 413.02246094 C-309.87318042 386.14428248 -319.4418374 355.48910705 -325 325 C-325.16371094 324.15614746 -325.32742188 323.31229492 -325.49609375 322.44287109 C-331.0212188 292.92797273 -330.76999438 258.45068363 -325 229 C-324.81195801 227.9795459 -324.62391602 226.9590918 -324.43017578 225.90771484 C-315.4436875 178.01552312 -294.74966706 132.21916448 -262.37744141 95.56616211 C-261.39741592 94.45186515 -260.42668076 93.32936761 -259.46240234 92.20141602 C-248.52171335 79.47231454 -236.44154024 67.09078379 -223 57 C-221.84015115 56.08980776 -220.6813777 55.17824418 -219.5234375 54.265625 C-208.88350591 45.97711965 -197.6266709 38.82003778 -186 32 C-185.2879541 31.58121582 -184.5759082 31.16243164 -183.84228516 30.73095703 C-156.9318751 15.14161334 -126.45481137 5.63096773 -96 0 C-95.15179688 -0.16516113 -94.30359375 -0.33032227 -93.4296875 -0.50048828 C-63.93032421 -6.02020274 -29.43310868 -5.78599572 0 0 Z M-118 136 C-119.00933594 136.89912109 -119.00933594 136.89912109 -120.0390625 137.81640625 C-138.20363079 154.56978298 -146.96030598 179.79674015 -147.9765625 203.97924805 C-148.60866678 231.62534451 -138.31561383 256.86888637 -119.49707031 276.95214844 C-100.66122935 296.37767256 -75.01113972 306.53447312 -48 307.25 C-18.83559356 306.43320443 6.29269084 294.75378506 26.4375 273.90625 C44.33070517 253.61273681 53.0704054 227.81827882 51.875 200.9375 C50.29468164 176.40167244 40.04082271 154.56468164 23 137 C22.40058594 136.32710937 21.80117188 135.65421875 21.18359375 134.9609375 C5.70432725 118.17780189 -18.26336669 108.6378179 -40.765625 107.08984375 C-41.87164062 107.04537109 -41.87164062 107.04537109 -43 107 C-44.13695312 106.94005859 -44.13695312 106.94005859 -45.296875 106.87890625 C-72.85240396 106.11347489 -98.46553016 117.04813715 -118 136 Z M-184.61376953 394.64550781 C-187.63440906 397.59698864 -190.36351619 400.70439524 -193 404 C-193.7321875 404.89460938 -194.464375 405.78921875 -195.21875 406.7109375 C-204.77213176 418.71312915 -213.15010223 431.63960624 -219.875 445.4375 C-220.40311279 446.49275879 -220.40311279 446.49275879 -220.94189453 447.56933594 C-222.72086439 451.27951994 -222.72086439 451.27951994 -222.3984375 455.25 C-216.30561722 462.87453488 -208.58931175 468.71455016 -200.86328125 474.58105469 C-199.06533924 475.95024218 -197.28261917 477.33752161 -195.5 478.7265625 C-143.92299244 518.32816966 -76.73201464 532.49862447 -12.96679688 524.62548828 C34.91040978 517.94890013 78.12929313 497.13092542 114.9375 466.25 C115.45731445 465.81429687 115.97712891 465.37859375 116.51269531 464.9296875 C120.20223717 461.78965188 123.61042457 458.4552453 127 455 C125.16442984 449.00050152 122.96872444 443.46350801 120 437.9375 C119.61263672 437.21288574 119.22527344 436.48827148 118.82617188 435.74169922 C108.11807475 416.16251213 93.4032287 397.07969544 76 383 C75.030625 382.19304687 74.06125 381.38609375 73.0625 380.5546875 C46.02134029 358.39026385 14.48939339 344.56428325 -20 339 C-21.65902344 338.72349609 -21.65902344 338.72349609 -23.3515625 338.44140625 C-84.30240883 331.06726745 -140.7819734 352.68095449 -184.61376953 394.64550781 Z " transform="translate(348,23)" style="fill: #D4D4D4;"/></svg>