<?xml version="1.0" encoding="UTF-8" standalone="no" ?>
<!DOCTYPE svg PUBLIC "-//W3C//DTD SVG 1.1//EN" "http://www.w3.org/Graphics/SVG/1.1/DTD/svg11.dtd">
<svg xmlns="http://www.w3.org/2000/svg" xmlns:xlink="http://www.w3.org/1999/xlink" version="1.1" width="1080" height="1080" viewBox="0 0 1080 1080" xml:space="preserve">
<desc>Created with Fabric.js 5.2.4</desc>
<defs>
</defs>
<g transform="matrix(1 0 0 1 540 540)" id="f01dddf0-92a0-4b3c-90ea-dfc7e7f70aee"  >
<rect style="stroke: none; stroke-width: 1; stroke-dasharray: none; stroke-linecap: butt; stroke-dashoffset: 0; stroke-linejoin: miter; stroke-miterlimit: 4; fill: rgb(255,255,255); fill-rule: nonzero; opacity: 1; visibility: hidden;" vector-effect="non-scaling-stroke"  x="-540" y="-540" rx="0" ry="0" width="1080" height="1080" />
</g>
<g transform="matrix(1 0 0 1 540 540)" id="8a5fb5c5-65cb-4d23-b9e3-dc68ea4f88a2"  >
</g>
<g transform="matrix(1 0 0 1 540 540)"  >
<path style="stroke: none; stroke-width: 1; stroke-dasharray: none; stroke-linecap: butt; stroke-dashoffset: 0; stroke-linejoin: miter; stroke-miterlimit: 4; fill: rgb(249,87,36); fill-rule: nonzero; opacity: 1;" vector-effect="non-scaling-stroke"  transform=" translate(-161, -166.5)" d="M 0 0 L 60 0 L 60 1 L 61 1 L 61 2 L 62 2 L 62 6 L 63 6 L 63 8 L 64 8 L 64 9 L 65 9 L 65 10 L 66 10 L 66 11 L 69 11 L 69 12 L 71 12 L 71 11 L 73 11 L 73 10 L 74 10 L 74 9 L 75 9 L 75 8 L 76 8 L 76 6 L 77 6 L 77 3 L 78 3 L 78 1 L 79 1 L 79 0 L 139 0 L 139 1 L 140 1 L 140 101 L 142 101 L 142 102 L 143 102 L 143 103 L 145 103 L 145 102 L 146 102 L 146 101 L 147 101 L 147 100 L 150 100 L 150 99 L 153 99 L 153 98 L 163 98 L 163 99 L 167 99 L 167 100 L 169 100 L 169 101 L 171 101 L 171 102 L 172 102 L 172 100 L 173 100 L 173 99 L 196 99 L 196 100 L 199 100 L 199 101 L 201 101 L 201 102 L 202 102 L 202 103 L 203 103 L 203 104 L 204 104 L 204 105 L 205 105 L 205 106 L 206 106 L 206 108 L 207 108 L 207 110 L 208 110 L 208 126 L 207 126 L 207 129 L 206 129 L 206 131 L 205 131 L 205 133 L 204 133 L 204 134 L 203 134 L 203 135 L 202 135 L 202 136 L 201 136 L 201 137 L 199 137 L 199 138 L 196 138 L 196 139 L 173 139 L 173 138 L 172 138 L 172 137 L 170 137 L 170 138 L 168 138 L 168 139 L 164 139 L 164 140 L 154 140 L 154 139 L 150 139 L 150 138 L 147 138 L 147 137 L 146 137 L 146 136 L 143 136 L 143 137 L 141 137 L 141 138 L 140 138 L 140 145 L 141 145 L 141 146 L 144 146 L 144 145 L 145 145 L 145 144 L 168 144 L 168 145 L 171 145 L 171 146 L 173 146 L 173 147 L 174 147 L 174 148 L 175 148 L 175 149 L 176 149 L 176 150 L 177 150 L 177 149 L 178 149 L 178 148 L 179 148 L 179 147 L 181 147 L 181 146 L 182 146 L 182 145 L 185 145 L 185 144 L 200 144 L 200 145 L 202 145 L 202 146 L 204 146 L 204 147 L 205 147 L 205 148 L 207 148 L 207 149 L 208 149 L 208 151 L 209 151 L 209 152 L 210 152 L 210 154 L 211 154 L 211 159 L 212 159 L 212 163 L 217 163 L 217 164 L 219 164 L 219 146 L 220 146 L 220 145 L 222 145 L 222 144 L 231 144 L 231 145 L 234 145 L 234 144 L 260 144 L 260 145 L 263 145 L 263 148 L 264 148 L 264 147 L 266 147 L 266 146 L 267 146 L 267 145 L 270 145 L 270 144 L 285 144 L 285 145 L 287 145 L 287 146 L 290 146 L 290 145 L 291 145 L 291 144 L 320 144 L 320 145 L 323 145 L 323 153 L 322 153 L 322 157 L 321 157 L 321 158 L 313 158 L 313 182 L 312 182 L 312 183 L 299 183 L 299 182 L 298 182 L 298 158 L 295 158 L 295 160 L 294 160 L 294 162 L 293 162 L 293 164 L 295 164 L 295 173 L 294 173 L 294 175 L 293 175 L 293 177 L 292 177 L 292 179 L 291 179 L 291 180 L 290 180 L 290 181 L 288 181 L 288 182 L 286 182 L 286 183 L 283 183 L 283 184 L 272 184 L 272 183 L 268 183 L 268 182 L 266 182 L 266 181 L 265 181 L 265 180 L 264 180 L 264 179 L 263 179 L 263 182 L 262 182 L 262 183 L 233 183 L 233 182 L 232 182 L 232 180 L 231 180 L 231 181 L 230 181 L 230 182 L 228 182 L 228 183 L 225 183 L 225 184 L 214 184 L 214 183 L 211 183 L 211 182 L 210 182 L 210 181 L 209 181 L 209 180 L 208 180 L 208 179 L 206 179 L 206 180 L 205 180 L 205 181 L 203 181 L 203 182 L 201 182 L 201 183 L 198 183 L 198 184 L 187 184 L 187 183 L 183 183 L 183 182 L 181 182 L 181 181 L 180 181 L 180 180 L 179 180 L 179 179 L 178 179 L 178 180 L 177 180 L 177 183 L 164 183 L 164 182 L 163 182 L 163 180 L 162 180 L 162 173 L 161 173 L 161 172 L 159 172 L 159 180 L 158 180 L 158 182 L 157 182 L 157 183 L 144 183 L 144 181 L 143 181 L 143 170 L 142 170 L 142 171 L 140 171 L 140 285 L 139 285 L 139 286 L 122 286 L 122 332 L 121 332 L 121 333 L 43 333 L 43 332 L 42 332 L 42 331 L 41 331 L 41 333 L 7 333 L 7 332 L 6 332 L 6 291 L 2 291 L 2 290 L 0 290 L 0 289 L -1 289 L -1 274 L 0 274 L 0 273 L 3 273 L 3 272 L 6 272 L 6 251 L 5 251 L 5 250 L 1 250 L 1 249 L 0 249 L 0 248 L -1 248 L -1 1 L 0 1 Z M 29 41 L 29 242 L 76 242 L 76 243 L 77 243 L 77 244 L 78 244 L 78 245 L 79 245 L 79 246 L 80 246 L 80 247 L 81 247 L 81 248 L 89 248 L 89 206 L 91 206 L 91 205 L 109 205 L 109 41 Z M 187 114 L 187 124 L 190 124 L 190 123 L 191 123 L 191 122 L 192 122 L 192 116 L 191 116 L 191 115 L 190 115 L 190 114 Z M 191 158 L 191 159 L 190 159 L 190 160 L 189 160 L 189 167 L 190 167 L 190 168 L 191 168 L 191 169 L 194 169 L 194 168 L 195 168 L 195 166 L 196 166 L 196 161 L 195 161 L 195 160 L 194 160 L 194 159 L 193 159 L 193 158 Z M 276 158 L 276 159 L 275 159 L 275 160 L 274 160 L 274 167 L 275 167 L 275 168 L 276 168 L 276 169 L 279 169 L 279 167 L 280 167 L 280 165 L 281 165 L 281 164 L 282 164 L 282 163 L 281 163 L 281 162 L 280 162 L 280 160 L 279 160 L 279 159 L 278 159 L 278 158 Z M 123 237 L 123 247 L 127 247 L 127 237 Z M 115 260 L 115 265 L 127 265 L 127 260 Z" stroke-linecap="round" />
</g>
<g transform="matrix(1 0 0 1 619.5 537.5)"  >
<path style="stroke: none; stroke-width: 1; stroke-dasharray: none; stroke-linecap: butt; stroke-dashoffset: 0; stroke-linejoin: miter; stroke-miterlimit: 4; fill: rgb(3,4,4); fill-rule: nonzero; opacity: 1;" vector-effect="non-scaling-stroke"  transform=" translate(-55.5, -20)" d="M 0 0 L 15 0 L 15 1 L 17 1 L 17 2 L 19 2 L 19 3 L 20 3 L 20 4 L 22 4 L 22 5 L 23 5 L 23 7 L 24 7 L 24 8 L 25 8 L 25 10 L 26 10 L 26 15 L 27 15 L 27 19 L 32 19 L 32 20 L 34 20 L 34 2 L 35 2 L 35 1 L 37 1 L 37 0 L 46 0 L 46 1 L 49 1 L 49 0 L 75 0 L 75 1 L 78 1 L 78 4 L 79 4 L 79 3 L 81 3 L 81 2 L 82 2 L 82 1 L 85 1 L 85 0 L 100 0 L 100 1 L 102 1 L 102 2 L 105 2 L 105 1 L 106 1 L 106 0 L 135 0 L 135 1 L 138 1 L 138 9 L 137 9 L 137 13 L 136 13 L 136 14 L 128 14 L 128 38 L 127 38 L 127 39 L 114 39 L 114 38 L 113 38 L 113 14 L 110 14 L 110 16 L 109 16 L 109 18 L 108 18 L 108 20 L 110 20 L 110 29 L 109 29 L 109 31 L 108 31 L 108 33 L 107 33 L 107 35 L 106 35 L 106 36 L 105 36 L 105 37 L 103 37 L 103 38 L 101 38 L 101 39 L 98 39 L 98 40 L 87 40 L 87 39 L 83 39 L 83 38 L 81 38 L 81 37 L 80 37 L 80 36 L 79 36 L 79 35 L 78 35 L 78 38 L 77 38 L 77 39 L 48 39 L 48 38 L 47 38 L 47 36 L 46 36 L 46 37 L 45 37 L 45 38 L 43 38 L 43 39 L 40 39 L 40 40 L 29 40 L 29 39 L 26 39 L 26 38 L 25 38 L 25 37 L 24 37 L 24 36 L 23 36 L 23 35 L 21 35 L 21 36 L 20 36 L 20 37 L 18 37 L 18 38 L 16 38 L 16 39 L 13 39 L 13 40 L 2 40 L 2 39 L -2 39 L -2 38 L -4 38 L -4 37 L -5 37 L -5 36 L -6 36 L -6 35 L -7 35 L -7 36 L -8 36 L -8 39 L -21 39 L -21 38 L -22 38 L -22 36 L -23 36 L -23 29 L -24 29 L -24 28 L -26 28 L -26 26 L -27 26 L -27 20 L -17 20 L -17 21 L -16 21 L -16 22 L -15 22 L -15 28 L -14 28 L -14 32 L -8 32 L -8 33 L -7 33 L -7 30 L -8 30 L -8 23 L -9 23 L -9 20 L -10 20 L -10 19 L -11 19 L -11 18 L -12 18 L -12 17 L -11 17 L -11 16 L -10 16 L -10 15 L -9 15 L -9 13 L -8 13 L -8 5 L -7 5 L -7 4 L -6 4 L -6 3 L -4 3 L -4 2 L -3 2 L -3 1 L 0 1 Z M 6 14 L 6 15 L 5 15 L 5 16 L 4 16 L 4 23 L 5 23 L 5 24 L 6 24 L 6 25 L 9 25 L 9 24 L 10 24 L 10 22 L 11 22 L 11 17 L 10 17 L 10 16 L 9 16 L 9 15 L 8 15 L 8 14 Z M 91 14 L 91 15 L 90 15 L 90 16 L 89 16 L 89 23 L 90 23 L 90 24 L 91 24 L 91 25 L 94 25 L 94 23 L 95 23 L 95 21 L 96 21 L 96 20 L 97 20 L 97 19 L 96 19 L 96 18 L 95 18 L 95 16 L 94 16 L 94 15 L 93 15 L 93 14 Z" stroke-linecap="round" />
</g>
<g transform="matrix(1 0 0 1 439.5 540)"  >
<path style="stroke: none; stroke-width: 1; stroke-dasharray: none; stroke-linecap: butt; stroke-dashoffset: 0; stroke-linejoin: miter; stroke-miterlimit: 4; fill: rgb(0,0,0); fill-rule: nonzero; opacity: 1;" vector-effect="non-scaling-stroke"  transform=" translate(-60.5, -166.5)" d="M 0 0 L 60 0 L 60 1 L 7 1 L 7 242 L 9 242 L 9 243 L 13 243 L 13 244 L 14 244 L 14 273 L 10 273 L 10 274 L 7 274 L 7 283 L 10 283 L 10 284 L 13 284 L 13 285 L 14 285 L 14 326 L 42 326 L 42 305 L 43 305 L 43 304 L 44 304 L 44 303 L 48 303 L 48 304 L 49 304 L 49 306 L 50 306 L 50 326 L 122 326 L 122 332 L 121 332 L 121 333 L 43 333 L 43 332 L 42 332 L 42 331 L 41 331 L 41 333 L 7 333 L 7 332 L 6 332 L 6 291 L 2 291 L 2 290 L 0 290 L 0 289 L -1 289 L -1 274 L 0 274 L 0 273 L 3 273 L 3 272 L 6 272 L 6 251 L 5 251 L 5 250 L 1 250 L 1 249 L 0 249 L 0 248 L -1 248 L -1 1 L 0 1 Z" stroke-linecap="round" />
</g>
<g transform="matrix(1 0 0 1 547 492.5)"  >
<path style="stroke: none; stroke-width: 1; stroke-dasharray: none; stroke-linecap: butt; stroke-dashoffset: 0; stroke-linejoin: miter; stroke-miterlimit: 4; fill: rgb(58,58,58); fill-rule: nonzero; opacity: 1;" vector-effect="non-scaling-stroke"  transform=" translate(-15, -21)" d="M 0 0 L 10 0 L 10 1 L 14 1 L 14 2 L 16 2 L 16 3 L 18 3 L 18 4 L 19 4 L 19 2 L 20 2 L 20 1 L 43 1 L 43 2 L 46 2 L 46 3 L 48 3 L 48 4 L 49 4 L 49 5 L 50 5 L 50 6 L 51 6 L 51 7 L 52 7 L 52 8 L 53 8 L 53 10 L 54 10 L 54 12 L 55 12 L 55 28 L 54 28 L 54 31 L 53 31 L 53 33 L 52 33 L 52 35 L 51 35 L 51 36 L 50 36 L 50 37 L 49 37 L 49 38 L 48 38 L 48 39 L 46 39 L 46 40 L 43 40 L 43 41 L 20 41 L 20 40 L 19 40 L 19 39 L 17 39 L 17 40 L 15 40 L 15 41 L 11 41 L 11 42 L 1 42 L 1 41 L -3 41 L -3 40 L -6 40 L -6 39 L -7 39 L -7 38 L -10 38 L -10 39 L -12 39 L -12 40 L -13 40 L -13 34 L -12 34 L -12 33 L -11 33 L -11 32 L -9 32 L -9 31 L -8 31 L -8 29 L -7 29 L -7 27 L -6 27 L -6 21 L -7 21 L -7 19 L -8 19 L -8 18 L -9 18 L -9 17 L -11 17 L -11 16 L -15 16 L -15 15 L -20 15 L -20 14 L -23 14 L -23 13 L -24 13 L -24 12 L -25 12 L -25 8 L -24 8 L -24 7 L -16 7 L -16 8 L -15 8 L -15 9 L -14 9 L -14 11 L -13 11 L -13 12 L -7 12 L -7 8 L -8 8 L -8 6 L -9 6 L -9 5 L -8 5 L -8 4 L -7 4 L -7 3 L -6 3 L -6 2 L -3 2 L -3 1 L 0 1 Z M 34 16 L 34 26 L 37 26 L 37 25 L 38 25 L 38 24 L 39 24 L 39 18 L 38 18 L 38 17 L 37 17 L 37 16 Z" stroke-linecap="round" />
</g>
<g transform="matrix(1 0 0 1 452 515)"  >
<path style="stroke: none; stroke-width: 1; stroke-dasharray: none; stroke-linecap: butt; stroke-dashoffset: 0; stroke-linejoin: miter; stroke-miterlimit: 4; fill: rgb(0,0,0); fill-rule: nonzero; opacity: 1;" vector-effect="non-scaling-stroke"  transform=" translate(-44, -107.5)" d="M 0 0 L 88 0 L 88 172 L 68 172 L 68 215 L 53 215 L 53 214 L 60 214 L 60 172 L 62 172 L 62 171 L 80 171 L 80 7 L 0 7 Z" stroke-linecap="round" />
</g>
<g transform="matrix(1 0 0 1 674 537)"  >
<path style="stroke: none; stroke-width: 1; stroke-dasharray: none; stroke-linecap: butt; stroke-dashoffset: 0; stroke-linejoin: miter; stroke-miterlimit: 4; fill: rgb(0,0,0); fill-rule: nonzero; opacity: 1;" vector-effect="non-scaling-stroke"  transform=" translate(-14, -19.5)" d="M 0 0 L 4 0 L 4 1 L 6 1 L 6 2 L 9 2 L 9 1 L 10 1 L 10 0 L 39 0 L 39 1 L 42 1 L 42 9 L 41 9 L 41 13 L 40 13 L 40 14 L 32 14 L 32 38 L 31 38 L 31 39 L 18 39 L 18 38 L 17 38 L 17 14 L 14 14 L 14 16 L 13 16 L 13 18 L 12 18 L 12 20 L 14 20 L 14 24 L 13 24 L 13 26 L 12 26 L 12 28 L 11 28 L 11 29 L 10 29 L 10 30 L 8 30 L 8 31 L 6 31 L 6 32 L -6 32 L -6 31 L -8 31 L -8 30 L -9 30 L -9 29 L -10 29 L -10 28 L -11 28 L -11 27 L -12 27 L -12 25 L -13 25 L -13 23 L -14 23 L -14 10 L -13 10 L -13 9 L -12 9 L -12 7 L -11 7 L -11 5 L -9 5 L -9 3 L -7 3 L -7 2 L -5 2 L -5 1 L 0 1 Z M -5 14 L -5 15 L -6 15 L -6 16 L -7 16 L -7 23 L -6 23 L -6 24 L -5 24 L -5 25 L -2 25 L -2 23 L -1 23 L -1 21 L 0 21 L 0 20 L 1 20 L 1 19 L 0 19 L 0 18 L -1 18 L -1 16 L -2 16 L -2 15 L -3 15 L -3 14 Z" stroke-linecap="round" />
</g>
<g transform="matrix(1 0 0 1 498 494)"  >
<path style="stroke: none; stroke-width: 1; stroke-dasharray: none; stroke-linecap: butt; stroke-dashoffset: 0; stroke-linejoin: miter; stroke-miterlimit: 4; fill: rgb(132,86,82); fill-rule: nonzero; opacity: 1;" vector-effect="non-scaling-stroke"  transform=" translate(-2, -86.5)" d="M 0 0 L 1 0 L 1 73 L 2 73 L 2 72 L 3 72 L 3 71 L 5 71 L 5 79 L 6 79 L 6 80 L 7 80 L 7 81 L 8 81 L 8 82 L 10 82 L 10 83 L 12 83 L 12 84 L 18 84 L 18 85 L 20 85 L 20 86 L 22 86 L 22 87 L 23 87 L 23 92 L 22 92 L 22 93 L 13 93 L 13 92 L 11 92 L 11 90 L 10 90 L 10 88 L 4 88 L 4 92 L 5 92 L 5 94 L 6 94 L 6 95 L 7 95 L 7 96 L 9 96 L 9 97 L 11 97 L 11 98 L 21 98 L 21 97 L 24 97 L 24 98 L 23 98 L 23 111 L 24 111 L 24 112 L 6 112 L 6 142 L 10 142 L 10 145 L 9 145 L 9 146 L 2 146 L 2 145 L 1 145 L 1 173 L -20 173 L -20 172 L 0 172 Z" stroke-linecap="round" />
</g>
<g transform="matrix(1 0 0 1 573 489.5)"  >
<path style="stroke: none; stroke-width: 1; stroke-dasharray: none; stroke-linecap: butt; stroke-dashoffset: 0; stroke-linejoin: miter; stroke-miterlimit: 4; fill: rgb(228,229,230); fill-rule: nonzero; opacity: 1;" vector-effect="non-scaling-stroke"  transform=" translate(-14, -16)" d="M 0 0 L 19 0 L 19 1 L 21 1 L 21 2 L 22 2 L 22 3 L 23 3 L 23 4 L 24 4 L 24 5 L 25 5 L 25 6 L 26 6 L 26 8 L 27 8 L 27 10 L 28 10 L 28 22 L 27 22 L 27 24 L 26 24 L 26 26 L 25 26 L 25 27 L 24 27 L 24 28 L 23 28 L 23 29 L 22 29 L 22 30 L 20 30 L 20 31 L 17 31 L 17 32 L 0 32 Z M 7 14 L 7 24 L 10 24 L 10 23 L 11 23 L 11 22 L 12 22 L 12 16 L 11 16 L 11 15 L 10 15 L 10 14 Z" stroke-linecap="round" />
</g>
<g transform="matrix(1 0 0 1 576 533.5)"  >
<path style="stroke: none; stroke-width: 1; stroke-dasharray: none; stroke-linecap: butt; stroke-dashoffset: 0; stroke-linejoin: miter; stroke-miterlimit: 4; fill: rgb(228,229,230); fill-rule: nonzero; opacity: 1;" vector-effect="non-scaling-stroke"  transform=" translate(-1, -16)" d="M 0 0 L 4 0 L 4 1 L 6 1 L 6 2 L 8 2 L 8 3 L 9 3 L 9 4 L 11 4 L 11 5 L 12 5 L 12 7 L 13 7 L 13 8 L 14 8 L 14 10 L 15 10 L 15 15 L 16 15 L 16 20 L 15 20 L 15 23 L 14 23 L 14 25 L 13 25 L 13 26 L 12 26 L 12 28 L 11 28 L 11 29 L 10 29 L 10 30 L 8 30 L 8 31 L 7 31 L 7 32 L -6 32 L -6 31 L -8 31 L -8 30 L -9 30 L -9 29 L -10 29 L -10 28 L -11 28 L -11 27 L -12 27 L -12 25 L -13 25 L -13 23 L -14 23 L -14 10 L -13 10 L -13 8 L -12 8 L -12 7 L -11 7 L -11 5 L -10 5 L -10 4 L -9 4 L -9 3 L -7 3 L -7 2 L -5 2 L -5 1 L 0 1 Z M -5 14 L -5 15 L -6 15 L -6 16 L -7 16 L -7 23 L -6 23 L -6 24 L -5 24 L -5 25 L -2 25 L -2 24 L -1 24 L -1 22 L 0 22 L 0 17 L -1 17 L -1 16 L -2 16 L -2 15 L -3 15 L -3 14 Z" stroke-linecap="round" />
</g>
<g transform="matrix(1 0 0 1 543.5 534.5)"  >
<path style="stroke: none; stroke-width: 1; stroke-dasharray: none; stroke-linecap: butt; stroke-dashoffset: 0; stroke-linejoin: miter; stroke-miterlimit: 4; fill: rgb(219,222,224); fill-rule: nonzero; opacity: 1;" vector-effect="non-scaling-stroke"  transform=" translate(-13.5, -16)" d="M 0 0 L 20 0 L 20 1 L 22 1 L 22 2 L 23 2 L 23 3 L 24 3 L 24 4 L 25 4 L 25 5 L 26 5 L 26 12 L 25 12 L 25 14 L 24 14 L 24 15 L 23 15 L 23 16 L 22 16 L 22 17 L 23 17 L 23 18 L 24 18 L 24 19 L 25 19 L 25 22 L 26 22 L 26 29 L 27 29 L 27 32 L 26 32 L 26 31 L 20 31 L 20 27 L 19 27 L 19 21 L 18 21 L 18 20 L 17 20 L 17 19 L 7 19 L 7 25 L 8 25 L 8 31 L 0 31 Z" stroke-linecap="round" />
</g>
<g transform="matrix(1 0 0 1 603 533.5)"  >
<path style="stroke: none; stroke-width: 1; stroke-dasharray: none; stroke-linecap: butt; stroke-dashoffset: 0; stroke-linejoin: miter; stroke-miterlimit: 4; fill: rgb(227,228,228); fill-rule: nonzero; opacity: 1;" vector-effect="non-scaling-stroke"  transform=" translate(-2, -16)" d="M 0 0 L 9 0 L 9 1 L 12 1 L 12 27 L 11 27 L 11 29 L 10 29 L 10 30 L 9 30 L 9 31 L 8 31 L 8 32 L -3 32 L -3 31 L -5 31 L -5 30 L -6 30 L -6 29 L -7 29 L -7 27 L -8 27 L -8 20 L -3 20 L -3 2 L -2 2 L -2 1 L 0 1 Z" stroke-linecap="round" />
</g>
<g transform="matrix(1 0 0 1 541.5 489)"  >
<path style="stroke: none; stroke-width: 1; stroke-dasharray: none; stroke-linecap: butt; stroke-dashoffset: 0; stroke-linejoin: miter; stroke-miterlimit: 4; fill: rgb(223,225,225); fill-rule: nonzero; opacity: 1;" vector-effect="non-scaling-stroke"  transform=" translate(-3.5, -16.5)" d="M 0 0 L 8 0 L 8 1 L 10 1 L 10 2 L 12 2 L 12 3 L 13 3 L 13 4 L 14 4 L 14 5 L 15 5 L 15 8 L 16 8 L 16 11 L 9 11 L 9 8 L 8 8 L 8 7 L 7 7 L 7 6 L -1 6 L -1 7 L -2 7 L -2 11 L -1 11 L -1 12 L 2 12 L 2 13 L 5 13 L 5 14 L 9 14 L 9 15 L 12 15 L 12 16 L 13 16 L 13 17 L 14 17 L 14 18 L 15 18 L 15 19 L 16 19 L 16 21 L 17 21 L 17 26 L 16 26 L 16 28 L 15 28 L 15 30 L 14 30 L 14 31 L 12 31 L 12 32 L 10 32 L 10 33 L -3 33 L -3 32 L -4 32 L -4 31 L -6 31 L -6 30 L -7 30 L -7 29 L -8 29 L -8 28 L -9 28 L -9 26 L -10 26 L -10 22 L -3 22 L -3 25 L -2 25 L -2 26 L -1 26 L -1 27 L 1 27 L 1 28 L 7 28 L 7 27 L 9 27 L 9 26 L 10 26 L 10 22 L 9 22 L 9 21 L 7 21 L 7 20 L 2 20 L 2 19 L -1 19 L -1 18 L -4 18 L -4 17 L -5 17 L -5 16 L -6 16 L -6 15 L -7 15 L -7 14 L -8 14 L -8 12 L -9 12 L -9 7 L -8 7 L -8 5 L -7 5 L -7 4 L -6 4 L -6 3 L -5 3 L -5 2 L -3 2 L -3 1 L 0 1 Z" stroke-linecap="round" />
</g>
<g transform="matrix(1 0 0 1 630.5 534)"  >
<path style="stroke: none; stroke-width: 1; stroke-dasharray: none; stroke-linecap: butt; stroke-dashoffset: 0; stroke-linejoin: miter; stroke-miterlimit: 4; fill: rgb(224,226,226); fill-rule: nonzero; opacity: 1;" vector-effect="non-scaling-stroke"  transform=" translate(-11.5, -15.5)" d="M 0 0 L 23 0 L 23 6 L 7 6 L 7 12 L 21 12 L 21 13 L 22 13 L 22 18 L 7 18 L 7 25 L 23 25 L 23 31 L 0 31 Z" stroke-linecap="round" />
</g>
<g transform="matrix(1 0 0 1 514 534.5)"  >
<path style="stroke: none; stroke-width: 1; stroke-dasharray: none; stroke-linecap: butt; stroke-dashoffset: 0; stroke-linejoin: miter; stroke-miterlimit: 4; fill: rgb(236,235,234); fill-rule: nonzero; opacity: 1;" vector-effect="non-scaling-stroke"  transform=" translate(-12, -15)" d="M 0 0 L 20 0 L 20 1 L 21 1 L 21 2 L 22 2 L 22 3 L 23 3 L 23 5 L 24 5 L 24 14 L 23 14 L 23 15 L 22 15 L 22 17 L 20 17 L 20 18 L 18 18 L 18 19 L 6 19 L 6 30 L 0 30 Z" stroke-linecap="round" />
</g>
<g transform="matrix(1 0 0 1 513 489.5)"  >
<path style="stroke: none; stroke-width: 1; stroke-dasharray: none; stroke-linecap: butt; stroke-dashoffset: 0; stroke-linejoin: miter; stroke-miterlimit: 4; fill: rgb(234,232,231); fill-rule: nonzero; opacity: 1;" vector-effect="non-scaling-stroke"  transform=" translate(-6, -16)" d="M 0 0 L 11 0 L 11 1 L 14 1 L 14 2 L 15 2 L 15 3 L 16 3 L 16 4 L 17 4 L 17 6 L 18 6 L 18 10 L 12 10 L 12 9 L 11 9 L 11 7 L 10 7 L 10 6 L 9 6 L 9 5 L 1 5 L 1 6 L 0 6 L 0 10 L 1 10 L 1 11 L 2 11 L 2 12 L 5 12 L 5 13 L 10 13 L 10 14 L 14 14 L 14 15 L 16 15 L 16 16 L 17 16 L 17 17 L 18 17 L 18 19 L 19 19 L 19 25 L 18 25 L 18 27 L 17 27 L 17 29 L 16 29 L 16 30 L 14 30 L 14 31 L 10 31 L 10 32 L 0 32 L 0 31 L -2 31 L -2 30 L -4 30 L -4 29 L -5 29 L -5 28 L -6 28 L -6 26 L -7 26 L -7 22 L -1 22 L -1 24 L 0 24 L 0 26 L 2 26 L 2 27 L 11 27 L 11 26 L 12 26 L 12 21 L 11 21 L 11 20 L 9 20 L 9 19 L 7 19 L 7 18 L 1 18 L 1 17 L -1 17 L -1 16 L -3 16 L -3 15 L -4 15 L -4 14 L -5 14 L -5 13 L -6 13 L -6 5 L -5 5 L -5 4 L -4 4 L -4 3 L -3 3 L -3 2 L -2 2 L -2 1 L 0 1 Z" stroke-linecap="round" />
</g>
<g transform="matrix(1 0 0 1 660 533.5)"  >
<path style="stroke: none; stroke-width: 1; stroke-dasharray: none; stroke-linecap: butt; stroke-dashoffset: 0; stroke-linejoin: miter; stroke-miterlimit: 4; fill: rgb(224,226,226); fill-rule: nonzero; opacity: 1;" vector-effect="non-scaling-stroke"  transform=" translate(0, -16)" d="M 0 0 L 4 0 L 4 1 L 6 1 L 6 2 L 8 2 L 8 3 L 9 3 L 9 4 L 10 4 L 10 5 L 11 5 L 11 6 L 12 6 L 12 8 L 13 8 L 13 10 L 14 10 L 14 12 L 7 12 L 7 10 L 6 10 L 6 8 L 4 8 L 4 7 L -4 7 L -4 8 L -5 8 L -5 9 L -6 9 L -6 10 L -7 10 L -7 15 L -8 15 L -8 18 L -7 18 L -7 23 L -6 23 L -6 24 L -5 24 L -5 25 L -4 25 L -4 26 L -2 26 L -2 27 L 3 27 L 3 26 L 5 26 L 5 25 L 6 25 L 6 23 L 7 23 L 7 20 L 14 20 L 14 24 L 13 24 L 13 26 L 12 26 L 12 28 L 11 28 L 11 29 L 10 29 L 10 30 L 8 30 L 8 31 L 6 31 L 6 32 L -6 32 L -6 31 L -8 31 L -8 30 L -9 30 L -9 29 L -10 29 L -10 28 L -11 28 L -11 27 L -12 27 L -12 25 L -13 25 L -13 23 L -14 23 L -14 10 L -13 10 L -13 9 L -12 9 L -12 7 L -11 7 L -11 5 L -9 5 L -9 3 L -7 3 L -7 2 L -5 2 L -5 1 L 0 1 Z" stroke-linecap="round" />
</g>
<g transform="matrix(1 0 0 1 508.5 507)"  >
<path style="stroke: none; stroke-width: 1; stroke-dasharray: none; stroke-linecap: butt; stroke-dashoffset: 0; stroke-linejoin: miter; stroke-miterlimit: 4; fill: rgb(243,86,37); fill-rule: nonzero; opacity: 1;" vector-effect="non-scaling-stroke"  transform=" translate(-11.5, -15.5)" d="M 0 0 L 1 0 L 1 2 L 2 2 L 2 3 L 9 3 L 9 4 L 3 4 L 3 8 L 4 8 L 4 10 L 5 10 L 5 11 L 6 11 L 6 12 L 8 12 L 8 13 L 10 13 L 10 14 L 20 14 L 20 13 L 23 13 L 23 14 L 22 14 L 22 27 L 23 27 L 23 28 L 5 28 L 5 30 L 1 30 L 1 31 L 0 31 Z" stroke-linecap="round" />
</g>
<g transform="matrix(1 0 0 1 533 537)"  >
<path style="stroke: none; stroke-width: 1; stroke-dasharray: none; stroke-linecap: butt; stroke-dashoffset: 0; stroke-linejoin: miter; stroke-miterlimit: 4; fill: rgb(1,1,1); fill-rule: nonzero; opacity: 1;" vector-effect="non-scaling-stroke"  transform=" translate(-9, -19.5)" d="M 0 0 L 23 0 L 23 1 L 6 1 L 6 32 L 14 32 L 14 36 L 13 36 L 13 38 L 12 38 L 12 39 L -1 39 L -1 37 L -2 37 L -2 26 L -3 26 L -3 27 L -5 27 L -5 21 L -4 21 L -4 20 L -2 20 L -2 19 L 0 19 L 0 17 L 1 17 L 1 16 L 2 16 L 2 7 L 1 7 L 1 5 L 0 5 L 0 4 L -1 4 L -1 3 L -2 3 L -2 2 L -1 2 L -1 1 L 0 1 Z" stroke-linecap="round" />
</g>
<g transform="matrix(1 0 0 1 688.5 534.5)"  >
<path style="stroke: none; stroke-width: 1; stroke-dasharray: none; stroke-linecap: butt; stroke-dashoffset: 0; stroke-linejoin: miter; stroke-miterlimit: 4; fill: rgb(237,237,237); fill-rule: nonzero; opacity: 1;" vector-effect="non-scaling-stroke"  transform=" translate(-11.5, -15)" d="M 0 0 L 23 0 L 23 4 L 15 4 L 15 30 L 9 30 L 9 4 L 0 4 Z" stroke-linecap="round" />
</g>
<g transform="matrix(1 0 0 1 575.5 534)"  >
<path style="stroke: none; stroke-width: 1; stroke-dasharray: none; stroke-linecap: butt; stroke-dashoffset: 0; stroke-linejoin: miter; stroke-miterlimit: 4; fill: rgb(7,9,10); fill-rule: nonzero; opacity: 1;" vector-effect="non-scaling-stroke"  transform=" translate(-2.5, -10.5)" d="M 0 0 L 4 0 L 4 1 L 6 1 L 6 2 L 8 2 L 8 3 L 9 3 L 9 5 L 10 5 L 10 8 L 11 8 L 11 15 L 10 15 L 10 17 L 9 17 L 9 18 L 8 18 L 8 19 L 7 19 L 7 20 L 5 20 L 5 21 L 0 21 L 0 20 L -2 20 L -2 19 L 0 19 L 0 18 L 1 18 L 1 16 L 2 16 L 2 11 L 1 11 L 1 10 L 0 10 L 0 9 L -1 9 L -1 8 L -3 8 L -3 9 L -4 9 L -4 10 L -5 10 L -5 13 L -6 13 L -6 7 L -5 7 L -5 4 L -4 4 L -4 3 L -3 3 L -3 2 L -2 2 L -2 1 L 0 1 Z" stroke-linecap="round" />
</g>
<g transform="matrix(1 0 0 1 504 633.5)"  >
<path style="stroke: none; stroke-width: 1; stroke-dasharray: none; stroke-linecap: butt; stroke-dashoffset: 0; stroke-linejoin: miter; stroke-miterlimit: 4; fill: rgb(0,0,1); fill-rule: nonzero; opacity: 1;" vector-effect="non-scaling-stroke"  transform=" translate(-10, -7)" d="M 0 0 L 20 0 L 20 14 L 13 14 L 13 13 L 0 13 L 0 12 L 12 12 L 12 7 L 0 7 Z" stroke-linecap="round" />
</g>
<g transform="matrix(1 0 0 1 604 531)"  >
<path style="stroke: none; stroke-width: 1; stroke-dasharray: none; stroke-linecap: butt; stroke-dashoffset: 0; stroke-linejoin: miter; stroke-miterlimit: 4; fill: rgb(1,1,1); fill-rule: nonzero; opacity: 1;" vector-effect="non-scaling-stroke"  transform=" translate(-3, -13.5)" d="M 0 0 L 9 0 L 9 1 L 5 1 L 5 26 L 4 26 L 4 27 L -1 27 L -1 26 L -2 26 L -2 20 L -3 20 L -3 2 L -2 2 L -2 1 L 0 1 Z" stroke-linecap="round" />
</g>
<g transform="matrix(1 0 0 1 573 489)"  >
<path style="stroke: none; stroke-width: 1; stroke-dasharray: none; stroke-linecap: butt; stroke-dashoffset: 0; stroke-linejoin: miter; stroke-miterlimit: 4; fill: rgb(4,5,6); fill-rule: nonzero; opacity: 1;" vector-effect="non-scaling-stroke"  transform=" translate(-7, -9.5)" d="M 0 0 L 8 0 L 8 1 L 10 1 L 10 2 L 12 2 L 12 4 L 13 4 L 13 5 L 14 5 L 14 14 L 13 14 L 13 17 L 12 17 L 12 18 L 11 18 L 11 19 L 0 19 L 0 18 L 3 18 L 3 17 L 4 17 L 4 16 L 5 16 L 5 10 L 4 10 L 4 9 L 3 9 L 3 8 L 0 8 Z" stroke-linecap="round" />
</g>
<g transform="matrix(1 0 0 1 508 489.5)"  >
<path style="stroke: none; stroke-width: 1; stroke-dasharray: none; stroke-linecap: butt; stroke-dashoffset: 0; stroke-linejoin: miter; stroke-miterlimit: 4; fill: rgb(150,57,28); fill-rule: nonzero; opacity: 1;" vector-effect="non-scaling-stroke"  transform=" translate(-9, -11)" d="M 0 0 L 2 0 L 2 8 L 3 8 L 3 9 L 4 9 L 4 10 L 5 10 L 5 11 L 7 11 L 7 12 L 9 12 L 9 13 L 15 13 L 15 14 L 17 14 L 17 15 L 19 15 L 19 16 L 20 16 L 20 21 L 19 21 L 19 22 L 10 22 L 10 21 L 8 21 L 8 19 L 7 19 L 7 16 L 0 16 L 0 15 L -1 15 L -1 13 L -2 13 L -2 2 L -1 2 L -1 1 L 0 1 Z" stroke-linecap="round" />
</g>
<g transform="matrix(1 0 0 1 508 613)"  >
<path style="stroke: none; stroke-width: 1; stroke-dasharray: none; stroke-linecap: butt; stroke-dashoffset: 0; stroke-linejoin: miter; stroke-miterlimit: 4; fill: rgb(4,5,6); fill-rule: nonzero; opacity: 1;" vector-effect="non-scaling-stroke"  transform=" translate(-6, -9.5)" d="M 0 0 L 12 0 L 12 19 L 0 19 L 0 17 L 4 17 L 4 7 L 0 7 Z" stroke-linecap="round" />
</g>
<g transform="matrix(1 0 0 1 501.5 537.5)"  >
<path style="stroke: none; stroke-width: 1; stroke-dasharray: none; stroke-linecap: butt; stroke-dashoffset: 0; stroke-linejoin: miter; stroke-miterlimit: 4; fill: rgb(169,57,22); fill-rule: nonzero; opacity: 1;" vector-effect="non-scaling-stroke"  transform=" translate(-3.5, -16)" d="M 0 0 L 4 0 L 4 28 L 8 28 L 8 31 L 7 31 L 7 32 L 0 32 L 0 31 L -1 31 L -1 1 L 0 1 Z" stroke-linecap="round" />
</g>
<g transform="matrix(1 0 0 1 483.5 380)"  >
<path style="stroke: none; stroke-width: 1; stroke-dasharray: none; stroke-linecap: butt; stroke-dashoffset: 0; stroke-linejoin: miter; stroke-miterlimit: 4; fill: rgb(0,0,1); fill-rule: nonzero; opacity: 1;" vector-effect="non-scaling-stroke"  transform=" translate(-25.5, -6.5)" d="M 0 0 L 60 0 L 60 1 L 7 1 L 7 4 L 6 4 L 6 6 L 5 6 L 5 8 L 4 8 L 4 9 L 3 9 L 3 10 L 2 10 L 2 11 L 1 11 L 1 12 L -1 12 L -1 13 L -9 13 L -9 12 L -8 12 L -8 11 L -6 11 L -6 10 L -5 10 L -5 9 L -4 9 L -4 8 L -3 8 L -3 6 L -2 6 L -2 3 L -1 3 L -1 1 L 0 1 Z" stroke-linecap="round" />
</g>
<g transform="matrix(1 0 0 1 689 534)"  >
<path style="stroke: none; stroke-width: 1; stroke-dasharray: none; stroke-linecap: butt; stroke-dashoffset: 0; stroke-linejoin: miter; stroke-miterlimit: 4; fill: rgb(186,193,196); fill-rule: nonzero; opacity: 1;" vector-effect="non-scaling-stroke"  transform=" translate(-13, -15.5)" d="M 0 0 L 26 0 L 26 8 L 25 8 L 25 12 L 24 12 L 24 13 L 16 13 L 16 5 L 24 5 L 24 1 L 1 1 L 1 5 L 10 5 L 10 31 L 9 31 L 9 6 L 0 6 Z" stroke-linecap="round" />
</g>
<g transform="matrix(1 0 0 1 510 656)"  >
<path style="stroke: none; stroke-width: 1; stroke-dasharray: none; stroke-linecap: butt; stroke-dashoffset: 0; stroke-linejoin: miter; stroke-miterlimit: 4; fill: rgb(0,0,0); fill-rule: nonzero; opacity: 1;" vector-effect="non-scaling-stroke"  transform=" translate(-9, -3.5)" d="M 0 0 L 18 0 L 18 6 L 17 6 L 17 7 L 0 7 Z" stroke-linecap="round" />
</g>
<g transform="matrix(1 0 0 1 537.5 500)"  >
<path style="stroke: none; stroke-width: 1; stroke-dasharray: none; stroke-linecap: butt; stroke-dashoffset: 0; stroke-linejoin: miter; stroke-miterlimit: 4; fill: rgb(227,227,228); fill-rule: nonzero; opacity: 1;" vector-effect="non-scaling-stroke"  transform=" translate(-9.5, -5.5)" d="M 0 0 L 7 0 L 7 3 L 8 3 L 8 4 L 9 4 L 9 5 L 11 5 L 11 6 L 19 6 L 19 7 L 18 7 L 18 8 L 17 8 L 17 11 L 7 11 L 7 10 L 6 10 L 6 9 L 4 9 L 4 8 L 3 8 L 3 7 L 2 7 L 2 6 L 1 6 L 1 4 L 0 4 Z" stroke-linecap="round" />
</g>
<g transform="matrix(1 0 0 1 514 528.5)"  >
<path style="stroke: none; stroke-width: 1; stroke-dasharray: none; stroke-linecap: butt; stroke-dashoffset: 0; stroke-linejoin: miter; stroke-miterlimit: 4; fill: rgb(191,91,61); fill-rule: nonzero; opacity: 1;" vector-effect="non-scaling-stroke"  transform=" translate(-6, -5)" d="M 0 0 L 9 0 L 9 1 L 10 1 L 10 2 L 11 2 L 11 3 L 12 3 L 12 8 L 11 8 L 11 9 L 10 9 L 10 10 L 0 10 Z" stroke-linecap="round" />
</g>
<g transform="matrix(1 0 0 1 495.5 613)"  >
<path style="stroke: none; stroke-width: 1; stroke-dasharray: none; stroke-linecap: butt; stroke-dashoffset: 0; stroke-linejoin: miter; stroke-miterlimit: 4; fill: rgb(20,27,33); fill-rule: nonzero; opacity: 1;" vector-effect="non-scaling-stroke"  transform=" translate(-2.5, -9.5)" d="M 0 0 L 5 0 L 5 19 L 0 19 Z" stroke-linecap="round" />
</g>
<g transform="matrix(1 0 0 1 543 528.5)"  >
<path style="stroke: none; stroke-width: 1; stroke-dasharray: none; stroke-linecap: butt; stroke-dashoffset: 0; stroke-linejoin: miter; stroke-miterlimit: 4; fill: rgb(4,6,6); fill-rule: nonzero; opacity: 1;" vector-effect="non-scaling-stroke"  transform=" translate(-6, -4)" d="M 0 0 L 11 0 L 11 1 L 12 1 L 12 7 L 11 7 L 11 8 L 1 8 L 1 4 L 0 4 Z" stroke-linecap="round" />
</g>
<g transform="matrix(1 0 0 1 513 483)"  >
<path style="stroke: none; stroke-width: 1; stroke-dasharray: none; stroke-linecap: butt; stroke-dashoffset: 0; stroke-linejoin: miter; stroke-miterlimit: 4; fill: rgb(151,58,29); fill-rule: nonzero; opacity: 1;" vector-effect="non-scaling-stroke"  transform=" translate(-5, -4.5)" d="M 0 0 L 8 0 L 8 1 L 9 1 L 9 2 L 10 2 L 10 4 L 11 4 L 11 9 L 9 9 L 9 8 L 4 8 L 4 7 L 1 7 L 1 6 L 0 6 L 0 5 L -1 5 L -1 1 L 0 1 Z" stroke-linecap="round" />
</g>
<g transform="matrix(1 0 0 1 501 537)"  >
<path style="stroke: none; stroke-width: 1; stroke-dasharray: none; stroke-linecap: butt; stroke-dashoffset: 0; stroke-linejoin: miter; stroke-miterlimit: 4; fill: rgb(97,33,13); fill-rule: nonzero; opacity: 1;" vector-effect="non-scaling-stroke"  transform=" translate(-1, -13.5)" d="M 0 0 L 2 0 L 2 26 L 3 26 L 3 27 L -1 27 L -1 1 L 0 1 Z" stroke-linecap="round" />
</g>
<g transform="matrix(1 0 0 1 509 504)"  >
<path style="stroke: none; stroke-width: 1; stroke-dasharray: none; stroke-linecap: butt; stroke-dashoffset: 0; stroke-linejoin: miter; stroke-miterlimit: 4; fill: rgb(136,57,32); fill-rule: nonzero; opacity: 1;" vector-effect="non-scaling-stroke"  transform=" translate(-11, -4.5)" d="M 0 0 L 3 0 L 3 2 L 4 2 L 4 3 L 5 3 L 5 4 L 7 4 L 7 5 L 9 5 L 9 6 L 19 6 L 19 5 L 22 5 L 22 6 L 21 6 L 21 7 L 19 7 L 19 8 L 17 8 L 17 9 L 6 9 L 6 8 L 3 8 L 3 7 L 2 7 L 2 6 L 1 6 L 1 5 L 0 5 Z" stroke-linecap="round" />
</g>
<g transform="matrix(1 0 0 1 508 500.5)"  >
<path style="stroke: none; stroke-width: 1; stroke-dasharray: none; stroke-linecap: butt; stroke-dashoffset: 0; stroke-linejoin: miter; stroke-miterlimit: 4; fill: rgb(234,227,224); fill-rule: nonzero; opacity: 1;" vector-effect="non-scaling-stroke"  transform=" translate(-8, -5)" d="M 0 0 L 6 0 L 6 2 L 7 2 L 7 4 L 9 4 L 9 5 L 16 5 L 16 6 L 11 6 L 11 8 L 12 8 L 12 9 L 11 9 L 11 10 L 7 10 L 7 9 L 5 9 L 5 8 L 3 8 L 3 7 L 2 7 L 2 6 L 1 6 L 1 4 L 0 4 Z" stroke-linecap="round" />
</g>
<g transform="matrix(1 0 0 1 517.5 478.5)"  >
<path style="stroke: none; stroke-width: 1; stroke-dasharray: none; stroke-linecap: butt; stroke-dashoffset: 0; stroke-linejoin: miter; stroke-miterlimit: 4; fill: rgb(223,221,221); fill-rule: nonzero; opacity: 1;" vector-effect="non-scaling-stroke"  transform=" translate(-1.5, -5)" d="M 0 0 L 2 0 L 2 1 L 5 1 L 5 2 L 6 2 L 6 3 L 7 3 L 7 4 L 8 4 L 8 6 L 9 6 L 9 10 L 3 10 L 3 9 L 2 9 L 2 7 L 1 7 L 1 6 L 0 6 L 0 5 L -6 5 L -6 4 L -1 4 L -1 2 L 0 2 Z" stroke-linecap="round" />
</g>
<g transform="matrix(1 0 0 1 484 687)"  >
<path style="stroke: none; stroke-width: 1; stroke-dasharray: none; stroke-linecap: butt; stroke-dashoffset: 0; stroke-linejoin: miter; stroke-miterlimit: 4; fill: rgb(23,21,24); fill-rule: nonzero; opacity: 1;" vector-effect="non-scaling-stroke"  transform=" translate(-2, -8.5)" d="M 0 0 L 4 0 L 4 17 L 0 17 Z" stroke-linecap="round" />
</g>
<g transform="matrix(1 0 0 1 697 528)"  >
<path style="stroke: none; stroke-width: 1; stroke-dasharray: none; stroke-linecap: butt; stroke-dashoffset: 0; stroke-linejoin: miter; stroke-miterlimit: 4; fill: rgb(4,5,5); fill-rule: nonzero; opacity: 1;" vector-effect="non-scaling-stroke"  transform=" translate(-5, -3.5)" d="M 0 0 L 10 0 L 10 2 L 9 2 L 9 6 L 8 6 L 8 7 L 0 7 Z" stroke-linecap="round" />
</g>
<g transform="matrix(1 0 0 1 508 500.5)"  >
<path style="stroke: none; stroke-width: 1; stroke-dasharray: none; stroke-linecap: butt; stroke-dashoffset: 0; stroke-linejoin: miter; stroke-miterlimit: 4; fill: rgb(191,76,40); fill-rule: nonzero; opacity: 1;" vector-effect="non-scaling-stroke"  transform=" translate(-11, -9)" d="M 0 0 L 1 0 L 1 2 L 2 2 L 2 3 L 9 3 L 9 4 L 3 4 L 3 8 L 1 8 L 1 13 L 2 13 L 2 14 L 3 14 L 3 15 L 4 15 L 4 16 L 7 16 L 7 17 L 18 17 L 18 16 L 20 16 L 20 15 L 22 15 L 22 17 L 20 17 L 20 18 L 5 18 L 5 17 L 3 17 L 3 16 L 2 16 L 2 15 L 1 15 L 1 14 L 0 14 Z" stroke-linecap="round" />
</g>
<g transform="matrix(1 0 0 1 494 687)"  >
<path style="stroke: none; stroke-width: 1; stroke-dasharray: none; stroke-linecap: butt; stroke-dashoffset: 0; stroke-linejoin: miter; stroke-miterlimit: 4; fill: rgb(1,3,4); fill-rule: nonzero; opacity: 1;" vector-effect="non-scaling-stroke"  transform=" translate(-2, -7.5)" d="M 0 0 L 4 0 L 4 15 L 0 15 Z" stroke-linecap="round" />
</g>
<g transform="matrix(1 0 0 1 465 687)"  >
<path style="stroke: none; stroke-width: 1; stroke-dasharray: none; stroke-linecap: butt; stroke-dashoffset: 0; stroke-linejoin: miter; stroke-miterlimit: 4; fill: rgb(0,0,0); fill-rule: nonzero; opacity: 1;" vector-effect="non-scaling-stroke"  transform=" translate(-2, -7.5)" d="M 0 0 L 4 0 L 4 15 L 0 15 Z" stroke-linecap="round" />
</g>
<g transform="matrix(1 0 0 1 436 687)"  >
<path style="stroke: none; stroke-width: 1; stroke-dasharray: none; stroke-linecap: butt; stroke-dashoffset: 0; stroke-linejoin: miter; stroke-miterlimit: 4; fill: rgb(0,0,0); fill-rule: nonzero; opacity: 1;" vector-effect="non-scaling-stroke"  transform=" translate(-2, -7.5)" d="M 0 0 L 4 0 L 4 15 L 0 15 Z" stroke-linecap="round" />
</g>
<g transform="matrix(1 0 0 1 412 687)"  >
<path style="stroke: none; stroke-width: 1; stroke-dasharray: none; stroke-linecap: butt; stroke-dashoffset: 0; stroke-linejoin: miter; stroke-miterlimit: 4; fill: rgb(0,0,0); fill-rule: nonzero; opacity: 1;" vector-effect="non-scaling-stroke"  transform=" translate(-2, -7.5)" d="M 0 0 L 4 0 L 4 15 L 0 15 Z" stroke-linecap="round" />
</g>
<g transform="matrix(1 0 0 1 549 479)"  >
<path style="stroke: none; stroke-width: 1; stroke-dasharray: none; stroke-linecap: butt; stroke-dashoffset: 0; stroke-linejoin: miter; stroke-miterlimit: 4; fill: rgb(220,222,224); fill-rule: nonzero; opacity: 1;" vector-effect="non-scaling-stroke"  transform=" translate(-3, -4.5)" d="M 0 0 L 4 0 L 4 1 L 5 1 L 5 2 L 6 2 L 6 3 L 7 3 L 7 6 L 8 6 L 8 9 L 1 9 L 1 6 L 2 6 L 2 5 L 1 5 L 1 4 L 0 4 L 0 3 L -2 3 L -2 1 L 0 1 Z" stroke-linecap="round" />
</g>
<g transform="matrix(1 0 0 1 513.5 544)"  >
<path style="stroke: none; stroke-width: 1; stroke-dasharray: none; stroke-linecap: butt; stroke-dashoffset: 0; stroke-linejoin: miter; stroke-miterlimit: 4; fill: rgb(166,71,42); fill-rule: nonzero; opacity: 1;" vector-effect="non-scaling-stroke"  transform=" translate(-5.5, -5.5)" d="M 0 0 L 11 0 L 11 3 L 10 3 L 10 4 L 7 4 L 7 5 L 1 5 L 1 11 L 0 11 Z" stroke-linecap="round" />
</g>
<g transform="matrix(1 0 0 1 504 488)"  >
<path style="stroke: none; stroke-width: 1; stroke-dasharray: none; stroke-linecap: butt; stroke-dashoffset: 0; stroke-linejoin: miter; stroke-miterlimit: 4; fill: rgb(100,36,16); fill-rule: nonzero; opacity: 1;" vector-effect="non-scaling-stroke"  transform=" translate(-5, -5.5)" d="M 0 0 L 1 0 L 1 2 L 2 2 L 2 4 L 3 4 L 3 5 L 4 5 L 4 6 L 5 6 L 5 7 L 7 7 L 7 8 L 9 8 L 9 9 L 11 9 L 11 11 L 9 11 L 9 10 L 3 10 L 3 9 L 2 9 L 2 8 L 1 8 L 1 7 L 0 7 L 0 6 L -1 6 L -1 1 L 0 1 Z" stroke-linecap="round" />
</g>
<g transform="matrix(1 0 0 1 474.5 687)"  >
<path style="stroke: none; stroke-width: 1; stroke-dasharray: none; stroke-linecap: butt; stroke-dashoffset: 0; stroke-linejoin: miter; stroke-miterlimit: 4; fill: rgb(0,0,0); fill-rule: nonzero; opacity: 1;" vector-effect="non-scaling-stroke"  transform=" translate(-1.5, -7.5)" d="M 0 0 L 3 0 L 3 15 L 0 15 Z" stroke-linecap="round" />
</g>
<g transform="matrix(1 0 0 1 455.5 687)"  >
<path style="stroke: none; stroke-width: 1; stroke-dasharray: none; stroke-linecap: butt; stroke-dashoffset: 0; stroke-linejoin: miter; stroke-miterlimit: 4; fill: rgb(0,0,0); fill-rule: nonzero; opacity: 1;" vector-effect="non-scaling-stroke"  transform=" translate(-1.5, -7.5)" d="M 0 0 L 3 0 L 3 15 L 0 15 Z" stroke-linecap="round" />
</g>
<g transform="matrix(1 0 0 1 445.5 687)"  >
<path style="stroke: none; stroke-width: 1; stroke-dasharray: none; stroke-linecap: butt; stroke-dashoffset: 0; stroke-linejoin: miter; stroke-miterlimit: 4; fill: rgb(0,0,0); fill-rule: nonzero; opacity: 1;" vector-effect="non-scaling-stroke"  transform=" translate(-1.5, -7.5)" d="M 0 0 L 3 0 L 3 15 L 0 15 Z" stroke-linecap="round" />
</g>
<g transform="matrix(1 0 0 1 402.5 687)"  >
<path style="stroke: none; stroke-width: 1; stroke-dasharray: none; stroke-linecap: butt; stroke-dashoffset: 0; stroke-linejoin: miter; stroke-miterlimit: 4; fill: rgb(0,0,0); fill-rule: nonzero; opacity: 1;" vector-effect="non-scaling-stroke"  transform=" translate(-1.5, -7.5)" d="M 0 0 L 3 0 L 3 15 L 0 15 Z" stroke-linecap="round" />
</g>
<g transform="matrix(1 0 0 1 514.5 528.5)"  >
<path style="stroke: none; stroke-width: 1; stroke-dasharray: none; stroke-linecap: butt; stroke-dashoffset: 0; stroke-linejoin: miter; stroke-miterlimit: 4; fill: rgb(101,42,24); fill-rule: nonzero; opacity: 1;" vector-effect="non-scaling-stroke"  transform=" translate(-5.5, -4)" d="M 0 0 L 9 0 L 9 1 L 10 1 L 10 2 L 11 2 L 11 7 L 10 7 L 10 8 L 7 8 L 7 4 L 6 4 L 6 3 L 5 3 L 5 2 L 0 2 Z" stroke-linecap="round" />
</g>
<g transform="matrix(1 0 0 1 500 486.5)"  >
<path style="stroke: none; stroke-width: 1; stroke-dasharray: none; stroke-linecap: butt; stroke-dashoffset: 0; stroke-linejoin: miter; stroke-miterlimit: 4; fill: rgb(160,60,29); fill-rule: nonzero; opacity: 1;" vector-effect="non-scaling-stroke"  transform=" translate(-1, -8)" d="M 0 0 L 2 0 L 2 6 L 1 6 L 1 4 L 0 4 L 0 5 L -1 5 L -1 10 L 0 10 L 0 11 L 1 11 L 1 12 L 2 12 L 2 13 L 3 13 L 3 15 L 4 15 L 4 16 L 0 16 L 0 15 L -1 15 L -1 13 L -2 13 L -2 2 L -1 2 L -1 1 L 0 1 Z" stroke-linecap="round" />
</g>
<g transform="matrix(1 0 0 1 503.5 503)"  >
<path style="stroke: none; stroke-width: 1; stroke-dasharray: none; stroke-linecap: butt; stroke-dashoffset: 0; stroke-linejoin: miter; stroke-miterlimit: 4; fill: rgb(111,40,18); fill-rule: nonzero; opacity: 1;" vector-effect="non-scaling-stroke"  transform=" translate(-5.5, -3.5)" d="M 0 0 L 3 0 L 3 2 L 4 2 L 4 3 L 5 3 L 5 4 L 7 4 L 7 5 L 9 5 L 9 6 L 11 6 L 11 7 L 4 7 L 4 6 L 1 6 L 1 5 L 0 5 Z" stroke-linecap="round" />
</g>
</svg>