<?xml version="1.0" encoding="UTF-8"?>
<!-- Generator: visioncortex VTracer -->
<svg id="svg" version="1.1" xmlns="http://www.w3.org/2000/svg" style="display: block;" viewBox="0 0 1080 1080"><path d="M0 0 C1.25644821 -0.0033284 2.51289642 -0.0066568 3.80741882 -0.01008606 C6.4537215 -0.01511731 9.10003044 -0.01749557 11.74633789 -0.01733398 C15.71313154 -0.01721355 19.67973621 -0.03765861 23.64648438 -0.05664062 C44.47062394 -0.10379158 65.00178128 0.95590921 85.57421875 4.29296875 C86.54438431 4.44820007 86.54438431 4.44820007 87.53414917 4.60656738 C115.98857787 9.18641074 143.98265866 15.41442931 171.44921875 24.16796875 C172.55587891 24.51939941 173.66253906 24.87083008 174.80273438 25.23291016 C243.14469234 47.23803669 305.94160801 84.56856793 358.9375 132.90234375 C360.31208332 134.14224783 361.69289821 135.37581829 363.10131836 136.57714844 C368.93362829 141.5700446 374.38730502 146.91990767 379.81225586 152.34570312 C381.37530609 153.90657202 382.9461924 155.45924763 384.51757812 157.01171875 C390.94712979 163.40588931 396.80851212 170.05542129 402.44921875 177.16796875 C404.0084768 179.00406017 405.57025808 180.83801839 407.13671875 182.66796875 C413.97645139 190.86504368 420.20062287 199.51701722 426.44921875 208.16796875 C427.24295898 209.26165771 427.24295898 209.26165771 428.05273438 210.37744141 C479.75715728 281.77487672 511.63430131 366.43593702 523.65234375 488.21875 C523.65940338 489.42346954 523.66646301 490.62818909 523.67373657 491.86941528 C523.69126205 495.73980749 523.69772212 499.61003813 523.69921875 503.48046875 C523.69966061 504.47136946 523.69966061 504.47136946 523.70011139 505.48228836 C523.7015806 525.88340022 523.38634319 545.94851908 520.44921875 566.16796875 C520.35211609 566.85048706 520.25501343 567.53300537 520.15496826 568.23620605 C512.55267929 621.52006606 498.28327513 672.45125972 475.2734375 721.1953125 C474.8201709 722.16194824 474.3669043 723.12858398 473.89990234 724.12451172 C472.85449806 726.31771431 471.78097562 728.49759267 470.68994141 730.66845703 C470.12194824 731.82458496 469.55395508 732.98071289 468.96875 734.171875 C468.17561401 735.74884155 468.17561401 735.74884155 467.36645508 737.35766602 C466.18054528 740.06466249 466.18054528 740.06466249 467.14892578 742.37133789 C469.1053282 745.07452329 471.29903693 747.55092124 473.51171875 750.04296875 C501.63762001 782.5922862 510.60137976 823.00312752 508.44921875 865.16796875 C505.04794553 904.2650785 482.40504205 939.91053478 453.19921875 965.01953125 C429.77150562 983.84537215 398.83007306 997.18635243 368.48828125 997.37109375 C367.73944672 997.37679382 366.99061218 997.3824939 366.21908569 997.3883667 C364.63744494 997.3977662 363.05578504 997.40433045 361.47412109 997.40820312 C359.11518611 997.41780205 356.75716472 997.44882789 354.3984375 997.48046875 C315.30011992 997.75326616 281.91273382 981.01889065 253.44921875 955.16796875 C249.26385698 956.7514041 245.30681734 958.70332359 241.32421875 960.73046875 C239.11825117 961.83661513 236.9105339 962.93921467 234.70263672 964.04150391 C233.24983728 964.76774622 231.79824292 965.4964067 230.34814453 966.22802734 C172.37711986 995.32907396 105.76996761 1010.30746979 41.05859375 1010.3359375 C39.30242895 1010.33916469 37.54626439 1010.34252976 35.7901001 1010.34602356 C32.12243022 1010.35197296 28.45478373 1010.35386806 24.78710938 1010.35327148 C21.08328323 1010.35319063 17.37958181 1010.36007489 13.67578125 1010.3737793 C-13.02331774 1010.4708733 -39.44509291 1010.29692997 -65.80078125 1005.48046875 C-66.5278125 1005.35102875 -67.25484375 1005.22158875 -68.00390625 1005.08822632 C-117.8330421 996.20502841 -165.5739518 980.37401897 -210.60742188 957.16845703 C-211.89829321 956.50388533 -213.19125975 955.84336701 -214.48632812 955.18701172 C-235.07512826 944.74349197 -254.78169879 932.59661101 -273.55078125 919.16796875 C-274.35773438 918.59159668 -275.1646875 918.01522461 -275.99609375 917.42138672 C-285.17031933 910.8372981 -294.11210697 904.08376145 -302.640625 896.6796875 C-305.42008896 894.2807676 -308.25168428 891.96782976 -311.11328125 889.66796875 C-316.10246543 885.60971107 -320.8274874 881.32281309 -325.53125 876.94140625 C-327.69873429 874.92669458 -329.91999157 872.99067703 -332.16796875 871.06640625 C-337.29730493 866.59411621 -342.10461729 861.80018419 -346.91381836 856.99023438 C-348.47686859 855.42936548 -350.0477549 853.87668987 -351.61914062 852.32421875 C-358.04952335 845.92922415 -363.89960405 839.27284601 -369.55078125 832.16796875 C-370.46240728 831.08984321 -371.38029961 830.01693263 -372.30859375 828.953125 C-384.52341676 814.90406289 -395.50723479 799.83322609 -405.55078125 784.16796875 C-405.99953613 783.47477539 -406.44829102 782.78158203 -406.91064453 782.06738281 C-418.38280604 764.32660273 -429.55238722 746.23196484 -438.61328125 727.12402344 C-439.59960881 725.06609209 -440.61984824 723.02736304 -441.64453125 720.98828125 C-467.56573212 668.76553286 -481.92247171 607.95841562 -487.55078125 550.16796875 C-487.68177467 548.83941612 -487.68177467 548.83941612 -487.81541443 547.48402405 C-488.51570422 539.82089571 -488.72562987 532.21600632 -488.75390625 524.5234375 C-488.76092056 523.24757278 -488.76793488 521.97170807 -488.77516174 520.65718079 C-488.79458967 516.55660513 -488.79959592 512.45608577 -488.80078125 508.35546875 C-488.80122311 507.65787445 -488.80166496 506.96028015 -488.80212021 506.24154663 C-488.80893644 485.74214002 -488.62101599 465.48674664 -485.55078125 445.16796875 C-485.37385742 443.95061035 -485.19693359 442.73325195 -485.01464844 441.47900391 C-475.32125825 375.94398511 -455.54408203 310.41663628 -421.55078125 253.16796875 C-421.0304834 252.28093262 -420.51018555 251.39389648 -419.97412109 250.47998047 C-412.15547141 237.18579532 -403.80697643 224.50015563 -394.55078125 212.16796875 C-393.70611282 211.02672085 -392.86229988 209.88483905 -392.01953125 208.7421875 C-384.85481631 199.08699802 -377.32044434 189.83493491 -369.41259766 180.78393555 C-366.08721502 176.97043667 -362.84778505 173.10992903 -359.67578125 169.16796875 C-356.73631999 165.53655402 -353.69693314 162.18121864 -350.32885742 158.94702148 C-348.56831471 157.18551184 -346.95252161 155.35863252 -345.3359375 153.46484375 C-341.59881829 149.16587412 -337.65156728 145.12038957 -333.61328125 141.10546875 C-332.94876953 140.43708984 -332.28425781 139.76871094 -331.59960938 139.08007812 C-327.08179671 134.5710294 -322.39769786 130.31929539 -317.55078125 126.16796875 C-316.54166116 125.29037091 -315.53254613 124.41276726 -314.5234375 123.53515625 C-305.79433965 116.05976776 -296.74754178 109.05699991 -287.55078125 102.16796875 C-286.89787109 101.6776416 -286.24496094 101.18731445 -285.57226562 100.68212891 C-245.94612723 71.00300125 -202.27948189 46.60053211 -155.55078125 30.16796875 C-154.44250977 29.77657715 -153.33423828 29.38518555 -152.19238281 28.98193359 C-104.12937434 12.24048496 -51.04395928 0.04854781 0 0 Z M-104.42578125 247.91796875 C-104.94011719 248.46066406 -105.45445312 249.00335938 -105.984375 249.5625 C-107.73486985 251.35664809 -109.58556317 252.97404381 -111.48828125 254.60546875 C-124.6863116 266.10949904 -134.49202267 279.65136005 -142.55078125 295.16796875 C-143.04723145 296.11397949 -143.04723145 296.11397949 -143.55371094 297.07910156 C-153.00438477 315.33834603 -158.51783494 334.88083214 -161.55078125 355.16796875 C-161.65390625 355.85584473 -161.75703125 356.5437207 -161.86328125 357.25244141 C-168.13608808 405.40743523 -153.44267216 452.77751315 -124.55078125 491.16796875 C-123.82375 492.14121094 -123.09671875 493.11445312 -122.34765625 494.1171875 C-93.87930165 530.46323565 -50.79604753 553.80548665 -5.10546875 559.47119141 C33.01495576 563.98732379 69.72480042 556.33336693 103.44921875 538.16796875 C104.05604492 537.84715332 104.66287109 537.52633789 105.28808594 537.19580078 C114.40742109 532.3506926 122.44546706 526.6380066 130.44921875 520.16796875 C131.81820312 519.10642578 131.81820312 519.10642578 133.21484375 518.0234375 C152.23980095 503.03154871 166.41162386 484.64724442 177.44921875 463.16796875 C177.96476318 462.18159424 177.96476318 462.18159424 178.49072266 461.17529297 C196.69573656 425.98690616 202.85057292 382.97461749 194.44921875 344.16796875 C194.28292969 343.3898584 194.11664062 342.61174805 193.9453125 341.81005859 C186.94222339 310.19889246 171.34548168 282.31876388 149.5859375 258.52734375 C147.73749896 256.48628913 145.9658699 254.40422593 144.19921875 252.29296875 C134.64304064 241.42472957 123.60591908 232.90879993 111.44921875 225.16796875 C110.58973633 224.61133545 110.58973633 224.61133545 109.71289062 224.04345703 C88.00663524 210.14709696 60.89120898 202.84336509 35.44921875 200.16796875 C34.68464355 200.08675781 33.92006836 200.00554687 33.13232422 199.921875 C-15.64456072 195.16009818 -69.67887893 212.69616572 -104.42578125 247.91796875 Z M-22.55078125 616.16796875 C-23.64616211 616.32394531 -24.74154297 616.47992187 -25.87011719 616.640625 C-60.02225934 621.58622885 -92.12929922 630.97505546 -123.55078125 645.16796875 C-124.76459473 645.71106689 -124.76459473 645.71106689 -126.00292969 646.26513672 C-150.4881047 657.28000012 -173.43800627 671.58861171 -194.55078125 688.16796875 C-195.370625 688.80734375 -196.19046875 689.44671875 -197.03515625 690.10546875 C-219.22285191 707.62950863 -238.66395811 726.43325592 -255.55078125 749.16796875 C-256.1020166 749.90499023 -256.65325195 750.64201172 -257.22119141 751.40136719 C-268.98671452 767.17401381 -279.0888497 783.76048986 -288.41503906 801.07666016 C-289.49859325 803.07187193 -290.61187247 805.04772833 -291.73046875 807.0234375 C-292.38052024 808.21656998 -293.02905395 809.41053115 -293.67578125 810.60546875 C-294.51496094 812.11947266 -294.51496094 812.11947266 -295.37109375 813.6640625 C-297.0548659 818.6652003 -297.70122998 822.96694404 -296.55078125 828.16796875 C-294.2569772 831.87456432 -291.32609061 834.62419432 -288.11328125 837.54296875 C-287.25669922 838.35878418 -286.40011719 839.17459961 -285.51757812 840.01513672 C-278.2181526 846.84792616 -270.45087372 852.94278076 -262.37255859 858.81591797 C-259.78838165 860.73379145 -257.32760676 862.78687435 -254.86328125 864.85546875 C-236.94994793 879.6312871 -216.81179708 891.91561895 -196.55078125 903.16796875 C-195.42518799 903.79566162 -195.42518799 903.79566162 -194.27685547 904.43603516 C-138.59739413 935.25150901 -74.83291129 951.2620586 -11.55078125 955.16796875 C-10.65198242 955.22581543 -9.75318359 955.28366211 -8.82714844 955.34326172 C70.7837513 960.32818799 149.37997245 944.504673 220.44921875 908.16796875 C219.86590031 905.04173584 219.15900243 902.06395504 218.14453125 899.05078125 C204.85090682 858.78802918 206.14668656 816.60438284 225.27490234 778.37353516 C230.84358007 767.91460904 237.74665907 758.15428837 245.44921875 749.16796875 C246.32320312 748.11222656 246.32320312 748.11222656 247.21484375 747.03515625 C254.00864658 738.98664209 262.20914885 732.66884357 270.44921875 726.16796875 C269.04287409 722.98750688 267.37073532 720.83260513 264.921875 718.375 C264.21804688 717.66706299 263.51421875 716.95912598 262.7890625 716.22973633 C262.03753906 715.48747803 261.28601563 714.74521973 260.51171875 713.98046875 C259.73828125 713.21307373 258.96484375 712.44567871 258.16796875 711.6550293 C253.41270946 706.98163747 248.58628103 702.53674946 243.32421875 698.43359375 C241.14424602 696.71568046 239.04315696 694.96993604 236.94921875 693.15234375 C168.76395964 634.46199327 69.71343823 602.78652049 -22.55078125 616.16796875 Z " transform="translate(522.55078125,33.83203125)" style="fill: #D4D4D4;"/><path d="M0 0 C2.30582442 0.00315136 4.61034924 -0.02036856 6.91601562 -0.0456543 C20.86519059 -0.10592776 34.27266638 1.89706715 47.63476562 6.00317383 C48.46347168 6.25518555 49.29217773 6.50719727 50.14599609 6.7668457 C61.40592359 10.34964801 71.6878535 15.89126892 81.65429688 22.18676758 C83.67458453 23.46572185 83.67458453 23.46572185 86.57226562 24.31567383 C87.57226562 25.31567383 88.57226562 26.31567383 89.57226562 27.31567383 C91.67216215 28.49142094 91.67216215 28.49142094 93.57226562 29.31567383 C93.57226562 29.97567383 93.57226562 30.63567383 93.57226562 31.31567383 C94.19101562 31.41879883 94.80976562 31.52192383 95.44726562 31.62817383 C97.57226562 32.31567383 97.57226562 32.31567383 99.57226562 35.31567383 C100.343125 35.77329102 101.11398437 36.2309082 101.90820312 36.70239258 C125.81306839 51.178506 142.61714411 88.46237718 149.10400391 114.44555664 C150.07909466 118.71094847 150.8879855 122.99338645 151.57226562 127.31567383 C151.7553125 128.45391602 151.93835937 129.5921582 152.12695312 130.76489258 C157.01307118 171.8220618 146.0619265 211.37016795 120.89038086 244.12231445 C96.02110125 275.29706231 60.17003423 295.45288135 20.57226562 300.31567383 C17.90995508 300.4276925 15.27352002 300.50258961 12.61132812 300.51879883 C11.86249359 300.5244989 11.11365906 300.53019897 10.34213257 300.53607178 C8.76049181 300.54547128 7.17883192 300.55203553 5.59716797 300.5559082 C3.23823299 300.56550712 0.8802116 300.59653297 -1.47851562 300.62817383 C-35.62096839 300.8663931 -67.38342856 288.07473444 -93.42773438 266.31567383 C-94.3790625 265.54868164 -95.33039062 264.78168945 -96.31054688 263.99145508 C-100.91712002 260.27548608 -105.27771808 256.54254228 -109.42773438 252.31567383 C-110.19085937 251.61442383 -110.95398438 250.91317383 -111.74023438 250.19067383 C-113.42773438 248.31567383 -113.42773438 248.31567383 -113.42773438 245.31567383 C-114.35585938 244.97536133 -114.35585938 244.97536133 -115.30273438 244.62817383 C-118.08257882 242.91121108 -118.24043184 241.31885083 -119.42773438 238.31567383 C-120.25273438 237.53192383 -121.07773437 236.74817383 -121.92773438 235.94067383 C-125.00766013 232.70675178 -125.50121583 230.61135074 -126.42773438 226.31567383 C-127.08773437 226.31567383 -127.74773438 226.31567383 -128.42773438 226.31567383 C-147.71497534 192.62327477 -152.91663261 149.8222656 -143.17382812 112.40551758 C-137.00644723 89.91806489 -126.67624048 70.01651699 -111.42773438 52.31567383 C-110.77160156 51.53836914 -110.11546875 50.76106445 -109.43945312 49.96020508 C-103.19750161 42.72438944 -96.23495133 36.80920025 -88.60351562 31.08911133 C-86.31565788 29.30126901 -86.31565788 29.30126901 -84.11523438 26.87817383 C-81.01093357 23.9182591 -77.8590693 21.98380465 -74.11523438 19.94067383 C-73.41229248 19.55419678 -72.70935059 19.16771973 -71.98510742 18.76953125 C-61.2527981 12.96611664 -50.46556067 8.41442647 -38.74023438 5.00317383 C-37.90983643 4.76058838 -37.07943848 4.51800293 -36.22387695 4.26806641 C-24.20043257 0.94018027 -12.40950303 -0.03528397 0 0 Z " transform="translate(878.427734375,730.684326171875)" style="fill: #FE5722;"/><path d="M0 0 C2.5 2 2.5 2 4 5 C4.23373362 11.42610581 2.29304586 16.15244303 -1.125 21.4375 C-2.03461052 22.91149212 -2.94201259 24.38684851 -3.84765625 25.86328125 C-4.34797363 26.67104004 -4.84829102 27.47879883 -5.36376953 28.31103516 C-8.5341847 33.52126385 -11.53241208 38.83239085 -14.5625 44.125 C-18.63471039 51.21356857 -22.73545073 58.27541975 -27 65.25 C-30.4112314 70.84021866 -33.33086813 76.60542486 -36.203125 82.48828125 C-38.74421724 87.45445934 -41.63193585 92.17603267 -44.5390625 96.93359375 C-47.31809052 101.49106403 -49.96735913 106.1210746 -52.625 110.75 C-64.01753001 130.508765 -64.01753001 130.508765 -67 132 C-70.36662304 132.46208551 -72.88702543 132.70417499 -75.83984375 130.8359375 C-77.64983639 129.29130484 -79.33020038 127.69554543 -81 126 C-84.58188759 122.38217374 -88.24817339 118.87762934 -92 115.4375 C-93.15109719 114.37896663 -94.30213719 113.32037105 -95.453125 112.26171875 C-96.03900391 111.72337402 -96.62488281 111.1850293 -97.22851562 110.63037109 C-98.96276341 109.03427039 -100.69306337 107.43401694 -102.421875 105.83203125 C-103.53118195 104.80461402 -104.6405559 103.77726913 -105.75 102.75 C-106.2872168 102.25250244 -106.82443359 101.75500488 -107.37792969 101.24243164 C-111.32241625 97.60001672 -115.32969047 94.03599765 -119.390625 90.5234375 C-122.03029708 88.02471878 -122.00844467 86.89528608 -122.3125 83.125 C-122.25830972 80.13911559 -122.09879241 79.15411616 -120.4375 76.5625 C-117.1454077 74.45218443 -114.91300627 74 -111 74 C-106.48021202 76.62879301 -102.71442215 79.9195787 -98.9375 83.5 C-97.8022272 84.56265372 -96.66680596 85.62514887 -95.53125 86.6875 C-94.95246094 87.23148438 -94.37367188 87.77546875 -93.77734375 88.3359375 C-90.31311422 91.57936999 -86.81004229 94.78094478 -83.31420898 97.99023438 C-81.0897226 100.03980086 -78.90849382 102.09559859 -76.81640625 104.28125 C-75.01256633 106.23044708 -75.01256633 106.23044708 -72 107 C-71.73606445 106.29399658 -71.47212891 105.58799316 -71.20019531 104.8605957 C-69.92926592 101.83140942 -68.43237207 99.07919805 -66.796875 96.23046875 C-66.15355225 95.10688965 -65.51022949 93.98331055 -64.84741211 92.82568359 C-64.14840128 91.61288279 -63.44926061 90.40015681 -62.75 89.1875 C-62.0252852 87.92540022 -61.30075976 86.66319169 -60.57641602 85.40087891 C-55.49788703 76.56007855 -50.37315598 67.74630552 -45.22387695 58.9465332 C-41.57323493 52.70668069 -37.9486799 46.45251406 -34.34350586 40.1862793 C-31.84859809 35.85190833 -29.34410163 31.52310371 -26.84033203 27.19384766 C-24.99614384 23.99330774 -23.16768223 20.78411741 -21.33984375 17.57421875 C-20.18544759 15.5699946 -19.03052414 13.56607404 -17.875 11.5625 C-17.35478271 10.63872559 -16.83456543 9.71495117 -16.29858398 8.76318359 C-12.15364644 1.62757776 -8.83016571 -2.56877548 0 0 Z " transform="translate(938,816)" style="fill: #FEFCFC;"/><path d="M0 0 C0.66 0.33 1.32 0.66 2 1 C-5.26 8.26 -12.52 15.52 -20 23 C-20 20 -20 20 -18.42578125 18.1328125 C-17.72839844 17.47023438 -17.03101563 16.80765625 -16.3125 16.125 C-15.57773437 15.41730469 -14.84296875 14.70960938 -14.0859375 13.98046875 C-13.05339844 13.00013672 -13.05339844 13.00013672 -12 12 C-11.154375 11.154375 -10.30875 10.30875 -9.4375 9.4375 C-6.29166667 6.29166667 -3.14583333 3.14583333 0 0 Z " transform="translate(785,765)" style="fill: #FF713A;"/></svg>