<?xml version="1.0" encoding="UTF-8"?>
<!-- Generator: visioncortex VTracer -->
<svg id="svg" version="1.1" xmlns="http://www.w3.org/2000/svg" style="display: block;" viewBox="0 0 1191 426"><path d="M0 0 C91.74 0 183.48 0 278 0 C278 5.94 278 11.88 278 18 C293.51 18 309.02 18 325 18 C325 41.76 325 65.52 325 90 C315.1 90.495 315.1 90.495 305 91 C304.34 92.98 303.68 94.96 303 97 C313.89 97.495 313.89 97.495 325 98 C325.02291487 101.9693655 325.04284015 105.9385632 325.05493164 109.90795898 C325.05997057 111.25920386 325.06680177 112.61044326 325.07543945 113.96166992 C325.08752419 115.90020434 325.09269828 117.838778 325.09765625 119.77734375 C325.10551147 121.52905884 325.10551147 121.52905884 325.11352539 123.31616211 C325 126 325 126 324 127 C321.04470496 127.16029688 318.11017543 127.25957328 315.15234375 127.31640625 C314.2659169 127.33718735 313.37949005 127.35796844 312.46620178 127.37937927 C309.623383 127.444974 306.78046883 127.50380552 303.9375 127.5625 C302.01496394 127.6056758 300.09243766 127.64928978 298.16992188 127.69335938 C293.44671332 127.80066543 288.72340847 127.90190451 284 128 C283.34 129.65 282.68 131.3 282 133 C279.03 133 276.06 133 273 133 C272.34 131.35 271.68 129.7 271 128 C257.14 127.505 257.14 127.505 243 127 C242.01 129.97 242.01 129.97 241 133 C161.47 133 81.94 133 0 133 C0 115.18 0 97.36 0 79 C2.64 77.68 5.28 76.36 8 75 C10.55209241 72.04914315 10.95838152 70.38843913 11.375 66.5 C10.95838152 62.61156087 10.55209241 60.95085685 8 58 C5.36 56.68 2.72 55.36 0 54 C0 36.18 0 18.36 0 0 Z M229 5 C229 8.96 229 12.92 229 17 C234.94 17 240.88 17 247 17 C247 13.04 247 9.08 247 5 C241.06 5 235.12 5 229 5 Z M252 5 C252 11.6 252 18.2 252 25 C256.29 25 260.58 25 265 25 C265 18.4 265 11.8 265 5 C260.71 5 256.42 5 252 5 Z M229 22 C229 22.99 229 23.98 229 25 C234.94 25 240.88 25 247 25 C247 24.01 247 23.02 247 22 C241.06 22 235.12 22 229 22 Z M33 23 C33 52.04 33 81.08 33 111 C101.97 111 170.94 111 242 111 C242.33 95.16 242.66 79.32 243 63 C245.475 60.525 245.475 60.525 248 58 C248 53.05 248 48.1 248 43 C233.81 43 219.62 43 205 43 C205 36.4 205 29.8 205 23 C148.24 23 91.48 23 33 23 Z M305 24 C305 24.99 305 25.98 305 27 C309.95 27 314.9 27 320 27 C320 26.01 320 25.02 320 24 C315.05 24 310.1 24 305 24 Z M305 33 C305 33.99 305 34.98 305 36 C309.95 36 314.9 36 320 36 C320 35.01 320 34.02 320 33 C315.05 33 310.1 33 305 33 Z M305 43 C305 43.99 305 44.98 305 46 C309.95 46 314.9 46 320 46 C320 45.01 320 44.02 320 43 C315.05 43 310.1 43 305 43 Z M305 52 C305 53.32 305 54.64 305 56 C309.95 56 314.9 56 320 56 C320 54.68 320 53.36 320 52 C315.05 52 310.1 52 305 52 Z M305 62 C305 62.99 305 63.98 305 65 C309.95 65 314.9 65 320 65 C320 64.01 320 63.02 320 62 C315.05 62 310.1 62 305 62 Z M305 72 C305 72.99 305 73.98 305 75 C309.95 75 314.9 75 320 75 C320 74.01 320 73.02 320 72 C315.05 72 310.1 72 305 72 Z M305 81 C305 82.32 305 83.64 305 85 C309.95 85 314.9 85 320 85 C320 83.68 320 82.36 320 81 C315.05 81 310.1 81 305 81 Z M305 105 C305 106.32 305 107.64 305 109 C309.95 109 314.9 109 320 109 C320 107.68 320 106.36 320 105 C315.05 105 310.1 105 305 105 Z M305 115 C305 115.99 305 116.98 305 118 C309.95 118 314.9 118 320 118 C320 117.01 320 116.02 320 115 C315.05 115 310.1 115 305 115 Z " transform="translate(564,128)" style="fill: #F95926;"/><path d="M0 0 C1.05900513 0.00012085 1.05900513 0.00012085 2.1394043 0.00024414 C4.24419533 -0.00190531 6.34842951 -0.0199447 8.453125 -0.0390625 C21.07800003 -0.09328945 32.70659395 0.02005851 42.38085938 8.93945312 C50.82008269 17.77119845 52.08003034 26.589811 51.94702148 38.42553711 C51.58437203 49.05410148 49.11789385 56.56494042 41.60742188 64.31054688 C31.90557465 72.85529305 18.71733972 72.5020391 6.45898438 72.39135742 C4.32214765 72.37277408 2.18573828 72.37085059 0.04882812 72.37109375 C-10.37354376 72.33348749 -10.37354376 72.33348749 -11.52148438 71.18554688 C-11.62104715 69.01292007 -11.64948156 66.83701581 -11.65087891 64.66210938 C-11.65263123 63.9808197 -11.65438354 63.29953003 -11.65618896 62.59759521 C-11.6606068 60.33522021 -11.65766975 58.07292274 -11.65429688 55.81054688 C-11.65496993 54.24495427 -11.65593998 52.67936177 -11.65719604 51.11376953 C-11.65867292 47.82844043 -11.65651879 44.54313846 -11.65185547 41.2578125 C-11.64615818 37.03734171 -11.64943724 32.81693451 -11.65542793 28.59646606 C-11.65903382 25.36238116 -11.65789483 22.12831143 -11.65530014 18.89422607 C-11.65463095 17.33762606 -11.65545903 15.78102469 -11.65777969 14.22442627 C-11.66030667 12.05257492 -11.65646502 9.88082791 -11.65087891 7.70898438 C-11.65008331 6.47067871 -11.64928772 5.23237305 -11.64846802 3.95654297 C-11.36832073 -2.15674077 -4.83066285 0.01748473 0 0 Z M5.47851562 14.18554688 C5.47851562 28.70554688 5.47851562 43.22554688 5.47851562 58.18554688 C21.14356689 59.30165155 21.14356689 59.30165155 29.47851562 55.18554688 C35.46539401 49.03686096 35.87731244 42.77215105 35.84423828 34.57324219 C35.69043459 28.02318047 34.5984289 23.48064245 30.01757812 18.64257812 C22.66160421 11.97739364 15.85141283 14.18554688 5.47851562 14.18554688 Z " transform="translate(1074.521484375,157.814453125)" style="fill: #E4E6EE;"/><path d="M0 0 C6.27 -0.04125 12.54 -0.0825 19 -0.125 C20.96324219 -0.14320801 22.92648438 -0.16141602 24.94921875 -0.18017578 C26.52864306 -0.18602433 28.10807042 -0.19111903 29.6875 -0.1953125 C30.48865234 -0.20554443 31.28980469 -0.21577637 32.11523438 -0.22631836 C40.013585 -0.22873228 46.63988599 0.9408184 53 6 C57.13529867 10.25016808 58.94972865 14.48100577 59.03515625 20.4609375 C58.51931838 28.84015753 55.03822233 33.29723447 49 39 C49.5775 39.20625 50.155 39.4125 50.75 39.625 C53.8664307 41.52948543 55.53153002 43.71575524 57 47 C57.90046026 51.09439424 58.33270756 55.20698493 58.75 59.375 C58.93755859 61.05142578 58.93755859 61.05142578 59.12890625 62.76171875 C59.43385212 65.50623155 59.71890568 68.25294185 60 71 C55.05 71 50.1 71 45 71 C43.09485727 65.28457182 42.32366857 60.27280342 41.66015625 54.33984375 C40.9792888 50.89521846 40.11916169 48.78299547 38 46 C35.27498092 45.09166031 33.37766029 44.81640015 30.55078125 44.68359375 C29.70322266 44.64169922 28.85566406 44.59980469 27.98242188 44.55664062 C26.66081055 44.49766602 26.66081055 44.49766602 25.3125 44.4375 C24.41982422 44.39431641 23.52714844 44.35113281 22.60742188 44.30664062 C20.40509892 44.20064647 18.20266527 44.09857949 16 44 C16.00785522 45.21901001 16.00785522 45.21901001 16.01586914 46.46264648 C16.03656994 50.12092322 16.04963803 53.77918767 16.0625 57.4375 C16.07087891 58.71689453 16.07925781 59.99628906 16.08789062 61.31445312 C16.09272461 63.13686523 16.09272461 63.13686523 16.09765625 64.99609375 C16.10551147 66.68496704 16.10551147 66.68496704 16.11352539 68.40795898 C16 71 16 71 15 72 C10.05 72 5.1 72 0 72 C0 48.24 0 24.48 0 0 Z M16 13 C16 19.27 16 25.54 16 32 C19.58413652 32.10788371 23.16503148 32.18726305 26.75 32.25 C27.76578125 32.28351563 28.7815625 32.31703125 29.828125 32.3515625 C35.5692905 32.5341426 35.5692905 32.5341426 40.6484375 30.23046875 C43.2191093 25.98811732 43.41745774 21.92030559 42.375 17.125 C40.50021846 14.22761035 39.34092406 13.95576882 36 13 C32.55811606 12.76361901 29.13534476 12.81164738 25.6875 12.875 C24.75615234 12.88402344 23.82480469 12.89304688 22.86523438 12.90234375 C20.57671177 12.92581578 18.28832221 12.96168391 16 13 Z " transform="translate(130,158)" style="fill: #E4E9EC;"/><path d="M0 0 C2.9496709 2.09909126 5.49122217 4.39587669 8 7 C8.7425 7.7425 9.485 8.485 10.25 9.25 C16.95397867 19.78482362 18.38832165 32.43738392 15.71484375 44.51171875 C13.244075 53.11215423 8.04414638 60.811433 0.3984375 65.64453125 C-8.73351222 70.31825773 -17.91363025 71.57175501 -28.08203125 69.31640625 C-37.5554395 66.12327144 -43.92761672 61.44793342 -48.74609375 52.625 C-53.8962685 41.84332576 -55.05991597 29.72377323 -51.03515625 18.3046875 C-46.84946865 8.98560944 -40.38932631 1.55823763 -30.875 -2.4375 C-20.55465662 -5.73943812 -9.57787196 -5.17477443 0 0 Z M-30.3125 13.25 C-36.75392711 19.84122774 -37.31230474 27.11488285 -37.21484375 35.9296875 C-36.71210975 43.11421343 -34.45372787 49.12645594 -29 54 C-23.20187035 56.90938178 -17.62999413 57.64938828 -11.33203125 56.0625 C-6.32091356 53.7793777 -3.16540485 49.4749835 -0.86328125 44.5859375 C2.11689031 35.65890777 1.20751024 26.72124686 -2 18 C-4.57130213 13.65538606 -7.32183176 11.83457578 -12 10 C-18.72550515 8.38089691 -24.7528048 8.98389725 -30.3125 13.25 Z " transform="translate(251,161)" style="fill: #E6EAED;"/><path d="M0 0 C4.17788377 3.18818617 7.81626988 6.73897722 9 12 C9 14.31 9 16.62 9 19 C4.05 19 -0.9 19 -6 19 C-6.45375 17.72125 -6.9075 16.4425 -7.375 15.125 C-8.72698038 12.4114166 -9.47119531 11.24646897 -12.24609375 9.953125 C-17.71805253 8.72047675 -21.8325429 8.84689287 -27 11 C-29.28056299 12.88374462 -29.28056299 12.88374462 -29.4375 15.9375 C-29.293125 16.948125 -29.14875 17.95875 -29 19 C-25.69158243 21.40696152 -22.47795614 22.59871495 -18.54296875 23.61328125 C-17.51236328 23.89236328 -16.48175781 24.17144531 -15.41992188 24.45898438 C-13.27880637 25.02434237 -11.13557368 25.58174687 -8.99023438 26.13085938 C-1.22825609 28.25391761 4.7070967 31.06976058 9.9375 37.3125 C12.52235141 43.85065357 12.66405581 50.47306326 10 57 C7.01094502 62.90579412 3.09872055 65.67300174 -3 68 C-3.91394531 68.35835938 -4.82789063 68.71671875 -5.76953125 69.0859375 C-14.78116528 71.63578316 -26.56734951 71.12099963 -35 67 C-41.01620385 63.48180789 -44.7736794 59.77042101 -47.44140625 53.30859375 C-48 51 -48 51 -48 45 C-42.72 45 -37.44 45 -32 45 C-31.34 47.31 -30.68 49.62 -30 52 C-25.82259626 55.77955576 -21.57315475 57.10078038 -16 57 C-12.89609001 56.63249706 -9.90329167 56.18059163 -7 55 C-4.68717413 51.53076119 -4.57521414 50.07794425 -5 46 C-7.23280268 43.0665327 -9.5576937 42.29596483 -13.04296875 41.31640625 C-14.03490234 41.02830078 -15.02683594 40.74019531 -16.04882812 40.44335938 C-17.08458984 40.15267578 -18.12035156 39.86199219 -19.1875 39.5625 C-38.47926868 34.11872254 -38.47926868 34.11872254 -44 26 C-46.63462135 20.73075731 -46.26488405 15.62781746 -45 10 C-41.42251931 3.10057296 -36.14446768 -0.55267384 -29.00390625 -3.234375 C-19.33430605 -5.6989285 -8.75482359 -4.91650191 0 0 Z " transform="translate(979,161)" style="fill: #E3EAED;"/><path d="M0 0 C5.1720487 3.09228308 9.10390278 6.07469619 11 12 C11.21203699 14.72196317 11.14165803 17.26127804 11 20 C6.05 20 1.1 20 -4 20 C-4.433125 18.88625 -4.86625 17.7725 -5.3125 16.625 C-6.69911119 12.82487666 -6.69911119 12.82487666 -10 11 C-15.67753189 9.86449362 -19.46756689 9.89767542 -25 12 C-27.28056299 13.88374462 -27.28056299 13.88374462 -27.4375 16.9375 C-27.293125 17.948125 -27.14875 18.95875 -27 20 C-23.69158243 22.40696152 -20.47795614 23.59871495 -16.54296875 24.61328125 C-15.51236328 24.89236328 -14.48175781 25.17144531 -13.41992188 25.45898438 C-11.27880637 26.02434237 -9.13557368 26.58174687 -6.99023438 27.13085938 C0.80243587 29.26231248 7.10781401 31.98825814 11.9375 38.6875 C15.02028833 45.39709814 14.38858276 51.15682757 11.90625 57.92578125 C9.46783778 63.50680232 5.51045996 66.62354928 0 69 C-9.37495129 72.16263417 -21.23407512 72.61196726 -30.68359375 69.23828125 C-36.51237053 66.12239215 -42.2483329 61.37646024 -45.125 55.3125 C-46 52 -46 52 -46 46 C-40.72 46 -35.44 46 -30 46 C-29.34 48.31 -28.68 50.62 -28 53 C-23.82259626 56.77955576 -19.57315475 58.10078038 -14 58 C-10.89609001 57.63249706 -7.90329167 57.18059163 -5 56 C-2.66956442 52.50434664 -2.41236756 51.1134271 -3 47 C-8.02514951 41.43722532 -16.03778656 40.57501951 -23.00976562 38.8203125 C-30.79350164 36.72525084 -36.69748209 33.94171493 -41.9375 27.6875 C-44.434939 21.37044841 -44.68646847 15.30736076 -42 9 C-38.56530612 3.07547227 -33.73229204 0.2570858 -27.421875 -2.12109375 C-18.51505716 -4.40880381 -8.28526073 -4.32908926 0 0 Z " transform="translate(1041,160)" style="fill: #E6E9ED;"/><path d="M0 0 C17.49 0 34.98 0 53 0 C53 4.29 53 8.58 53 13 C40.79 13 28.58 13 16 13 C16 17.95 16 22.9 16 28 C27.22 28 38.44 28 50 28 C50 31.96 50 35.92 50 40 C38.78 40 27.56 40 16 40 C16 45.61 16 51.22 16 57 C28.54 57 41.08 57 54 57 C54 61.29 54 65.58 54 70 C36.18 70 18.36 70 0 70 C0 46.9 0 23.8 0 0 Z " transform="translate(333,159)" style="fill: #E9EBED;"/><path d="M0 0 C6.09510691 4.94165043 9.04706476 9.73532381 10.5859375 17.4296875 C10.64007813 18.03039062 10.69421875 18.63109375 10.75 19.25 C9.75 20.25 9.75 20.25 6.58984375 20.34765625 C5.30207031 20.33605469 4.01429688 20.32445312 2.6875 20.3125 C1.39714844 20.30347656 0.10679687 20.29445312 -1.22265625 20.28515625 C-2.22167969 20.27355469 -3.22070312 20.26195312 -4.25 20.25 C-4.69085938 19.31800781 -5.13171875 18.38601562 -5.5859375 17.42578125 C-7.52158646 13.73169063 -9.6034067 11.23977156 -13.25 9.25 C-18.58215644 7.6404787 -23.37151305 7.94144994 -28.4609375 10.171875 C-33.49291519 13.20424584 -35.75818538 17.68186736 -37.25 23.25 C-38.24019593 31.96831452 -38.54843565 40.94675087 -33.25 48.25 C-29.66743463 51.92939146 -26.27917277 53.31235762 -21.25 54.25 C-16.74385139 54.17275174 -12.1655453 53.55326194 -8.25 51.25 C-6.21374762 47.49900877 -5.42624105 43.36684368 -4.25 39.25 C1.03 39.25 6.31 39.25 11.75 39.25 C10.40649636 48.65452551 7.53072967 56.54926045 -0.0625 62.6875 C-8.99559305 68.62607221 -19.08041316 69.87309672 -29.609375 67.78125 C-31.63373258 67.10106585 -33.38340118 66.28699934 -35.25 65.25 C-35.99894531 64.83621094 -36.74789063 64.42242187 -37.51953125 63.99609375 C-45.90560585 58.89213127 -50.31811976 52.50856918 -53.25 43.25 C-53.43304688 42.67894531 -53.61609375 42.10789063 -53.8046875 41.51953125 C-56.0203867 30.22723972 -54.76956797 18.61478821 -48.7421875 8.79296875 C-44.06818665 2.23849779 -38.41895692 -1.95162643 -31.0625 -5.125 C-19.82917036 -6.96652945 -9.49301502 -6.59923349 0 0 Z " transform="translate(448.25,162.75)" style="fill: #E6EAEC;"/><path d="M0 0 C42.71857923 0 42.71857923 0 51 7 C56.71018688 14.32075241 56.52993827 21.0012405 56 30 C55.01711371 35.6122807 51.37090295 38.90801479 47.23046875 42.51953125 C40.91033782 46.71450432 34.43284422 46.24199751 27.125 46.125 C26.05507812 46.11597656 24.98515625 46.10695312 23.8828125 46.09765625 C21.25497561 46.07419342 18.62760594 46.04136459 16 46 C16.00785522 47.1281311 16.00785522 47.1281311 16.01586914 48.27905273 C16.03657227 51.66519342 16.04963877 55.05132084 16.0625 58.4375 C16.07087891 59.62150391 16.07925781 60.80550781 16.08789062 62.02539062 C16.09272461 63.71245117 16.09272461 63.71245117 16.09765625 65.43359375 C16.10551147 66.99678345 16.10551147 66.99678345 16.11352539 68.59155273 C16 71 16 71 15 72 C10.05 72 5.1 72 0 72 C0 48.24 0 24.48 0 0 Z M16 13 C16 19.93 16 26.86 16 34 C28.57856645 34.91618757 28.57856645 34.91618757 39.4375 29.8125 C41.4335879 26.21954178 41.50746274 24.05970195 41 20 C39.71650996 16.96015517 38.84250141 15.46114187 35.9375 13.87109375 C31.96559933 12.69325618 28.30156962 12.78603438 24.1875 12.875 C21.485625 12.91625 18.78375 12.9575 16 13 Z " transform="translate(64,158)" style="fill: #E5E9EC;"/><path d="M0 0 C19.47 0 38.94 0 59 0 C59 12 59 12 58 13 C51.07 13 44.14 13 37 13 C37 31.81 37 50.62 37 70 C32.05 70 27.1 70 22 70 C22 51.19 22 32.38 22 13 C15.07 13 8.14 13 1 13 C-2.07318149 9.92681851 0 4.34613494 0 0 Z " transform="translate(464,159)" style="fill: #EBECED;"/><path d="M0 0 C5.28 0 10.56 0 16 0 C16.04974874 6.77692619 16.08588385 13.55374408 16.10986328 20.33081055 C16.11986889 22.6322617 16.13347758 24.93370031 16.15087891 27.23510742 C16.17536779 30.55911369 16.18653784 33.88295066 16.1953125 37.20703125 C16.20563507 38.2220723 16.21595764 39.23711334 16.22659302 40.28291321 C16.2282137 50.79892436 15.7237023 60.21894348 8 68 C1.58360997 72.85141685 -6.26657681 72.55310569 -14 72 C-19.73478934 70.788156 -23.93124376 68.16337848 -28 64 C-31.78910898 57.72837135 -31.62786374 51.21944336 -32 44 C-27.05 44 -22.1 44 -17 44 C-16.8453125 46.10375 -16.8453125 46.10375 -16.6875 48.25 C-16.1268448 53.23423578 -16.1268448 53.23423578 -13 57 C-9.02300587 58.12393312 -5.97639598 58.05257541 -2 57 C-0.92502814 50.79117679 -0.78303064 44.67123305 -0.68359375 38.37890625 C-0.66281265 37.27900864 -0.64203156 36.17911102 -0.62062073 35.04588318 C-0.5555258 31.5514823 -0.49642731 28.05700979 -0.4375 24.5625 C-0.39427665 22.18553963 -0.35066117 19.80858636 -0.30664062 17.43164062 C-0.19988569 11.62116612 -0.09850656 5.81061996 0 0 Z " transform="translate(304,159)" style="fill: #E7EAEC;"/><path d="M0 0 C1.65 0 3.3 0 5 0 C5.62653984 2.47878625 6.25125672 4.95800986 6.875 7.4375 C7.04902344 8.12521484 7.22304688 8.81292969 7.40234375 9.52148438 C8.69469136 14.66694247 9.84806584 19.81629627 11 25 C13.64 16.75 16.28 8.5 19 0 C20.65 0 22.3 0 24 0 C27.11011723 7.85713826 29.52134441 15.92722447 32 24 C33.81448163 18.94887548 34.99784357 13.8600154 36.125 8.625 C36.30675781 7.79355469 36.48851562 6.96210938 36.67578125 6.10546875 C37.12010213 4.07094684 37.56045577 2.03555921 38 0 C39.98 0 41.96 0 44 0 C41.71486476 12.09449626 38.9111725 24.04259652 36 36 C34.02 36 32.04 36 30 36 C27.36 28.08 24.72 20.16 22 12 C18.60792489 20.47737365 18.60792489 20.47737365 15.8125 29.0625 C14.1039604 34.8960396 14.1039604 34.8960396 13 36 C11.33382885 36.04063832 9.66611905 36.042721 8 36 C5.52070015 30.18333534 4.28334926 24.14552405 2.875 18 C2.59785156 16.824375 2.32070313 15.64875 2.03515625 14.4375 C1.77347656 13.303125 1.51179687 12.16875 1.2421875 11 C1.0035498 9.96875 0.76491211 8.9375 0.51904297 7.875 C0.03134793 5.17363747 -0.09998294 2.73663993 0 0 Z " transform="translate(704,292)" style="fill: #DB6440;"/><path d="M0 0 C18 0 18 0 23 4 C24.34553453 6.69106907 24.20594114 8.87165422 24.25 11.875 C24.27578125 12.92429687 24.3015625 13.97359375 24.328125 15.0546875 C23.96038358 18.35560456 23.06184847 19.49087224 21 22 C21.20053341 26.61226844 22.88732629 29.95836333 25 34 C25 34.66 25 35.32 25 36 C23.02 36 21.04 36 19 36 C16.525 30.555 16.525 30.555 14 25 C11.03 25 8.06 25 5 25 C5 28.63 5 32.26 5 36 C3.35 36 1.7 36 0 36 C0 24.12 0 12.24 0 0 Z M5 5 C5 9.95 5 14.9 5 20 C11.73786235 20.27071658 11.73786235 20.27071658 18 18 C19.9115792 14.1768416 19.31517278 9.94551835 18 6 C14.14854957 4.07427479 9.19956748 4.95116782 5 5 Z " transform="translate(815,292)" style="fill: #E0633C;"/><path d="M0 0 C4.5478125 -0.1546875 4.5478125 -0.1546875 9.1875 -0.3125 C10.13391357 -0.35802002 11.08032715 -0.40354004 12.05541992 -0.45043945 C16.41288917 -0.52213118 18.42255047 -0.41774518 22.05078125 2.20703125 C25.5729798 7.25386886 25.20808969 12.38182503 25.25 18.375 C25.270625 19.10460937 25.29125 19.83421875 25.3125 20.5859375 C25.34976868 25.80355287 24.4189122 29.36179457 22 34 C20 36 20 36 17.93701172 36.22705078 C16.69588623 36.21134033 16.69588623 36.21134033 15.4296875 36.1953125 C14.21901611 36.18781982 14.21901611 36.18781982 12.98388672 36.18017578 C11.44498779 36.15286377 11.44498779 36.15286377 9.875 36.125 C6.61625 36.08375 3.3575 36.0425 0 36 C0 24.12 0 12.24 0 0 Z M5 5 C5 13.91 5 22.82 5 32 C16.05719096 33.41421356 16.05719096 33.41421356 19 30 C19.31081337 27.60823522 19.31081337 27.60823522 19.265625 24.84375 C19.26820313 23.82152344 19.27078125 22.79929687 19.2734375 21.74609375 C19.26570312 20.67488281 19.25796875 19.60367187 19.25 18.5 C19.26160156 16.89318359 19.26160156 16.89318359 19.2734375 15.25390625 C19.27085937 14.23167969 19.26828125 13.20945312 19.265625 12.15625 C19.26336914 11.21587891 19.26111328 10.27550781 19.25878906 9.30664062 C19.22098716 6.80508033 19.22098716 6.80508033 17 5 C13.04 5 9.08 5 5 5 Z " transform="translate(863,292)" style="fill: #DE643E;"/><path d="M0 0 C18 0 18 0 22 2 C24.26680018 5.21369139 24.26929358 8.14128464 24.25 12 C24.25515625 13.03125 24.2603125 14.0625 24.265625 15.125 C24.00499165 17.94597278 23.45296344 19.60145718 22 22 C21.34 22 20.68 22 20 22 C20.3609375 22.84304688 20.721875 23.68609375 21.09375 24.5546875 C21.5578125 25.65039062 22.021875 26.74609375 22.5 27.875 C23.19609375 29.51082031 23.19609375 29.51082031 23.90625 31.1796875 C25 34 25 34 25 36 C23.35 36 21.7 36 20 36 C19.16180842 34.37750059 18.3295884 32.75191503 17.5 31.125 C17.0359375 30.22007812 16.571875 29.31515625 16.09375 28.3828125 C15 26 15 26 15 24 C11.7 24 8.4 24 5 24 C5 27.96 5 31.92 5 36 C3.35 36 1.7 36 0 36 C0 24.12 0 12.24 0 0 Z M5 5 C5 9.95 5 14.9 5 20 C9.36634007 20.19550776 12.88234966 20.34213786 17.0625 19.0625 C19.76253927 16.18826465 19.4794629 13.98104368 19.37109375 10.15625 C19.10035433 7.71119528 19.10035433 7.71119528 17 5 C14.10391601 4.63501966 14.10391601 4.63501966 10.875 4.8125 C7.966875 4.9053125 7.966875 4.9053125 5 5 Z " transform="translate(658,292)" style="fill: #E75D35;"/><path d="M0 0 C1.21429687 -0.02835937 2.42859375 -0.05671875 3.6796875 -0.0859375 C7.69127964 0.45076077 9.28470362 1.55566522 12.125 4.375 C14.16661111 8.45822222 13.35406579 13.69972808 13.375 18.1875 C13.395625 19.28126953 13.41625 20.37503906 13.4375 21.50195312 C13.44265625 22.55962891 13.4478125 23.61730469 13.453125 24.70703125 C13.46714355 26.15686401 13.46714355 26.15686401 13.48144531 27.63598633 C13.05991586 30.87512256 12.03420135 32.74737884 10.125 35.375 C6.99441914 36.94029043 3.68420992 36.64191314 0.25 36.6875 C-0.47058594 36.71650391 -1.19117188 36.74550781 -1.93359375 36.77539062 C-5.41768694 36.81709708 -7.46251127 36.67349424 -10.3203125 34.60546875 C-13.59639868 29.90535516 -13.09113184 24.58724289 -13.125 19.0625 C-13.145625 18.23298828 -13.16625 17.40347656 -13.1875 16.54882812 C-13.22219477 11.05404364 -12.55199147 7.20984674 -9.875 2.375 C-6.24295662 -0.04636226 -4.32356165 0.04570361 0 0 Z M-6.875 6.375 C-6.93285647 10.33327235 -6.96854717 14.2914367 -7 18.25 C-7.01675781 19.37792969 -7.03351562 20.50585938 -7.05078125 21.66796875 C-7.05722656 22.74433594 -7.06367187 23.82070313 -7.0703125 24.9296875 C-7.08078613 25.92468262 -7.09125977 26.91967773 -7.10205078 27.94482422 C-7.11879401 30.55671417 -7.11879401 30.55671417 -4.875 32.375 C-2.27725081 32.73248865 -2.27725081 32.73248865 0.625 32.6875 C1.6046875 32.70425781 2.584375 32.72101563 3.59375 32.73828125 C4.4290625 32.61839844 5.264375 32.49851562 6.125 32.375 C8.26376592 29.16685112 8.38076428 28.2872927 8.390625 24.59375 C8.39320313 23.66949219 8.39578125 22.74523437 8.3984375 21.79296875 C8.39070312 20.83003906 8.38296875 19.86710937 8.375 18.875 C8.38273438 17.91207031 8.39046875 16.94914062 8.3984375 15.95703125 C8.39585937 15.03277344 8.39328125 14.10851562 8.390625 13.15625 C8.38836914 12.31126953 8.38611328 11.46628906 8.38378906 10.59570312 C8.26213548 8.08815422 8.26213548 8.08815422 6.125 5.375 C4.07234388 4.71833483 4.07234388 4.71833483 1.75 4.5625 C0.59371094 4.42908203 0.59371094 4.42908203 -0.5859375 4.29296875 C-3.18691358 4.38617779 -4.60788912 5.16036986 -6.875 6.375 Z " transform="translate(620.875,291.625)" style="fill: #DF5F3C;"/><path d="M0 0 C1.65 0 3.3 0 5 0 C5 5.28 5 10.56 5 16 C9.62 16 14.24 16 19 16 C19 10.72 19 5.44 19 0 C20.65 0 22.3 0 24 0 C24 11.88 24 23.76 24 36 C22.35 36 20.7 36 19 36 C19 31.05 19 26.1 19 21 C14.38 21 9.76 21 5 21 C5 25.95 5 30.9 5 36 C3.35 36 1.7 36 0 36 C0 24.12 0 12.24 0 0 Z " transform="translate(484,292)" style="fill: #E65D35;"/><path d="M0 0 C3.1875 1.5625 3.1875 1.5625 5 4 C5.8125 7.75 5.8125 7.75 6 11 C4.35 11 2.7 11 1 11 C0.71125 10.195625 0.4225 9.39125 0.125 8.5625 C-0.73262568 5.8673532 -0.73262568 5.8673532 -3 5 C-4.54023996 4.93049459 -6.08334988 4.91547643 -7.625 4.9375 C-8.44226563 4.94652344 -9.25953125 4.95554687 -10.1015625 4.96484375 C-10.72804688 4.97644531 -11.35453125 4.98804688 -12 5 C-12.20970559 9.14093698 -12.20970559 9.14093698 -11 13 C-8.93398575 13.64198183 -6.84607002 14.21423322 -4.75 14.75 C2.77734375 17.00820313 2.77734375 17.00820313 5.375 19.6875 C7.25499141 23.51979018 7.30165415 25.70503006 6.78515625 29.8515625 C5.69880736 32.82415896 4.5595102 34.11996889 2 36 C-1.49609375 36.56640625 -1.49609375 36.56640625 -5.4375 36.5625 C-6.73558594 36.58441406 -8.03367187 36.60632813 -9.37109375 36.62890625 C-13.80547532 35.8604074 -15.27603047 34.51412863 -18 31 C-18.3125 28.1875 -18.3125 28.1875 -18 26 C-16.35 26 -14.7 26 -13 26 C-12.34 27.65 -11.68 29.3 -11 31 C-7.37 31 -3.74 31 0 31 C1.04214691 26.38492226 1.04214691 26.38492226 0 22 C-3.23200636 20.88660311 -6.50653318 20.00883125 -9.80078125 19.09765625 C-12.83930637 18.0551342 -14.74763991 17.26848677 -17 15 C-17.6796875 12.87890625 -17.6796875 12.87890625 -17.875 10.5625 C-17.95492188 9.80066406 -18.03484375 9.03882813 -18.1171875 8.25390625 C-17.9793151 5.60216043 -17.49785828 4.19096662 -16 2 C-11.3532159 -1.24964412 -5.39990849 -0.58277701 0 0 Z " transform="translate(454,292)" style="fill: #E45D37;"/><path d="M0 0 C1.2065625 0.0309375 1.2065625 0.0309375 2.4375 0.0625 C5.47270832 6.61165613 7.52065939 13.41726458 9.625 20.3125 C9.99302734 21.49585938 10.36105469 22.67921875 10.74023438 23.8984375 C11.08763672 25.03023438 11.43503906 26.16203125 11.79296875 27.328125 C12.26706177 28.87161621 12.26706177 28.87161621 12.75073242 30.44628906 C13.4375 33.0625 13.4375 33.0625 13.4375 36.0625 C11.7875 36.0625 10.1375 36.0625 8.4375 36.0625 C7.7775 33.7525 7.1175 31.4425 6.4375 29.0625 C2.1475 29.0625 -2.1425 29.0625 -6.5625 29.0625 C-7.2225 31.3725 -7.8825 33.6825 -8.5625 36.0625 C-10.2125 36.0625 -11.8625 36.0625 -13.5625 36.0625 C-11.47239558 27.14881937 -9.12913573 18.35861871 -6.375 9.625 C-6.11315918 8.79057373 -5.85131836 7.95614746 -5.58154297 7.09643555 C-3.33702108 0.08139076 -3.33702108 0.08139076 0 0 Z M-0.5625 7.0625 C-2.2125 13.0025 -3.8625 18.9425 -5.5625 25.0625 C-1.9325 25.0625 1.6975 25.0625 5.4375 25.0625 C3.7875 19.1225 2.1375 13.1825 0.4375 7.0625 C0.1075 7.0625 -0.2225 7.0625 -0.5625 7.0625 Z " transform="translate(778.5625,291.9375)" style="fill: #E2603A;"/><path d="M0 0 C1.2065625 0.0309375 1.2065625 0.0309375 2.4375 0.0625 C5.47270832 6.61165613 7.52065939 13.41726458 9.625 20.3125 C9.99302734 21.49585938 10.36105469 22.67921875 10.74023438 23.8984375 C11.08763672 25.03023438 11.43503906 26.16203125 11.79296875 27.328125 C12.26706177 28.87161621 12.26706177 28.87161621 12.75073242 30.44628906 C13.4375 33.0625 13.4375 33.0625 13.4375 36.0625 C11.7875 36.0625 10.1375 36.0625 8.4375 36.0625 C7.7775 34.0825 7.1175 32.1025 6.4375 30.0625 C2.1475 29.7325 -2.1425 29.4025 -6.5625 29.0625 C-7.2225 31.3725 -7.8825 33.6825 -8.5625 36.0625 C-10.2125 36.0625 -11.8625 36.0625 -13.5625 36.0625 C-11.47239558 27.14881937 -9.12913573 18.35861871 -6.375 9.625 C-6.11315918 8.79057373 -5.85131836 7.95614746 -5.58154297 7.09643555 C-3.33702108 0.08139076 -3.33702108 0.08139076 0 0 Z M-0.5625 7.0625 C-2.2125 13.0025 -3.8625 18.9425 -5.5625 25.0625 C-1.9325 25.0625 1.6975 25.0625 5.4375 25.0625 C3.7875 19.1225 2.1375 13.1825 0.4375 7.0625 C0.1075 7.0625 -0.2225 7.0625 -0.5625 7.0625 Z " transform="translate(400.5625,291.9375)" style="fill: #E35D37;"/><path d="M0 0 C0.87454834 0.00523682 1.74909668 0.01047363 2.65014648 0.01586914 C3.59438477 0.0190918 4.53862305 0.02231445 5.51147461 0.02563477 C6.50469727 0.03401367 7.49791992 0.04239258 8.52124023 0.05102539 C9.51833008 0.05553711 10.51541992 0.06004883 11.54272461 0.06469727 C14.01478872 0.07652532 16.48673541 0.0930069 18.95874023 0.11352539 C18.62874023 1.76352539 18.29874023 3.41352539 17.95874023 5.11352539 C13.00874023 5.11352539 8.05874023 5.11352539 2.95874023 5.11352539 C2.95874023 8.74352539 2.95874023 12.37352539 2.95874023 16.11352539 C6.91874023 16.11352539 10.87874023 16.11352539 14.95874023 16.11352539 C14.95874023 17.76352539 14.95874023 19.41352539 14.95874023 21.11352539 C10.99874023 21.11352539 7.03874023 21.11352539 2.95874023 21.11352539 C2.95874023 26.06352539 2.95874023 31.01352539 2.95874023 36.11352539 C0.97874023 36.11352539 -1.00125977 36.11352539 -3.04125977 36.11352539 C-3.06591074 31.1473019 -3.08409625 26.18111373 -3.09619141 21.21484375 C-3.10123166 19.52408224 -3.10806381 17.8333251 -3.11669922 16.14257812 C-3.12877833 13.71751832 -3.134491 11.29251595 -3.13891602 8.86743164 C-3.1440773 8.10701065 -3.14923859 7.34658966 -3.15455627 6.56312561 C-3.15475214 4.74619969 -3.10323253 2.92939412 -3.04125977 1.11352539 C-2.04125977 0.11352539 -2.04125977 0.11352539 0 0 Z " transform="translate(568.041259765625,291.886474609375)" style="fill: #D56244;"/><path d="M0 0 C7.26 0 14.52 0 22 0 C21.67 1.65 21.34 3.3 21 5 C15.72 5 10.44 5 5 5 C5 8.63 5 12.26 5 16 C8.96 16 12.92 16 17 16 C17.33 17.65 17.66 19.3 18 21 C13.71 21 9.42 21 5 21 C5 25.95 5 30.9 5 36 C3.35 36 1.7 36 0 36 C0 24.12 0 12.24 0 0 Z " transform="translate(302,292)" style="fill: #DD5E3C;"/><path d="M0 0 C1.65 0 3.3 0 5 0 C5 10.56 5 21.12 5 32 C9.95 32 14.9 32 20 32 C20 33.32 20 34.64 20 36 C13.4 36 6.8 36 0 36 C0 24.12 0 12.24 0 0 Z " transform="translate(346,292)" style="fill: #E65C34;"/></svg>