<?xml version="1.0" encoding="UTF-8"?>
<!-- Generator: visioncortex VTracer -->
<svg id="svg" version="1.1" xmlns="http://www.w3.org/2000/svg" style="display: block;" viewBox="0 0 1080 1080"><path d="M0 0 C1.25644821 -0.0033284 2.51289642 -0.0066568 3.80741882 -0.01008606 C6.4537215 -0.01511731 9.10003044 -0.01749557 11.74633789 -0.01733398 C15.71313154 -0.01721355 19.67973621 -0.03765861 23.64648438 -0.05664062 C44.47062394 -0.10379158 65.00178128 0.95590921 85.57421875 4.29296875 C86.54438431 4.44820007 86.54438431 4.44820007 87.53414917 4.60656738 C115.98857787 9.18641074 143.98265866 15.41442931 171.44921875 24.16796875 C172.55587891 24.51939941 173.66253906 24.87083008 174.80273438 25.23291016 C243.14469234 47.23803669 305.94160801 84.56856793 358.9375 132.90234375 C360.31208332 134.14224783 361.69289821 135.37581829 363.10131836 136.57714844 C368.93362829 141.5700446 374.38730502 146.91990767 379.81225586 152.34570312 C381.37530609 153.90657202 382.9461924 155.45924763 384.51757812 157.01171875 C390.94712979 163.40588931 396.80851212 170.05542129 402.44921875 177.16796875 C404.0084768 179.00406017 405.57025808 180.83801839 407.13671875 182.66796875 C413.97645139 190.86504368 420.20062287 199.51701722 426.44921875 208.16796875 C427.24295898 209.26165771 427.24295898 209.26165771 428.05273438 210.37744141 C479.75715728 281.77487672 511.63430131 366.43593702 523.65234375 488.21875 C523.65940338 489.42346954 523.66646301 490.62818909 523.67373657 491.86941528 C523.69126205 495.73980749 523.69772212 499.61003813 523.69921875 503.48046875 C523.69966061 504.47136946 523.69966061 504.47136946 523.70011139 505.48228836 C523.7015806 525.88340022 523.38634319 545.94851908 520.44921875 566.16796875 C520.35211609 566.85048706 520.25501343 567.53300537 520.15496826 568.23620605 C511.47409958 629.0797485 493.71681514 686.4077986 465.49609375 741.12744141 C464.33102198 743.39835323 463.18782655 745.67977234 462.04296875 747.9609375 C448.47099739 774.72823447 431.66533891 799.1753051 412.44921875 822.16796875 C411.95647461 822.75980957 411.46373047 823.35165039 410.95605469 823.96142578 C404.94324905 831.17315332 398.78225982 838.23498157 392.44921875 845.16796875 C391.59545654 846.10656738 390.74169434 847.04516602 389.86206055 848.01220703 C382.90544242 855.62758999 375.75417239 863.02004448 368.44775391 870.29980469 C366.68273331 872.05940355 364.92320742 873.82437272 363.1640625 875.58984375 C357.43013433 881.32779594 351.67534068 886.9587351 345.44921875 892.16796875 C344.50272461 892.97451904 344.50272461 892.97451904 343.53710938 893.79736328 C332.90356713 902.82418897 321.89153476 911.1959514 310.44921875 919.16796875 C309.55879883 919.79251953 309.55879883 919.79251953 308.65039062 920.4296875 C283.51369309 937.96420884 256.20848158 954.20328816 228.44921875 967.16796875 C227.50691406 967.60963379 226.56460938 968.05129883 225.59375 968.50634766 C177.46508975 990.88916403 126.30562693 1004.50335604 73.44921875 1009.16796875 C72.48281464 1009.25426041 71.51641052 1009.34055206 70.52072144 1009.42945862 C60.69011726 1010.22427248 50.91334777 1010.33160221 41.05859375 1010.3359375 C39.30242895 1010.33916469 37.54626439 1010.34252976 35.7901001 1010.34602356 C32.12243022 1010.35197296 28.45478373 1010.35386806 24.78710938 1010.35327148 C21.08328323 1010.35319063 17.37958181 1010.36007489 13.67578125 1010.3737793 C-13.02331774 1010.4708733 -39.44509291 1010.29692997 -65.80078125 1005.48046875 C-66.5278125 1005.35102875 -67.25484375 1005.22158875 -68.00390625 1005.08822632 C-117.8330421 996.20502841 -165.5739518 980.37401897 -210.60742188 957.16845703 C-211.89829321 956.50388533 -213.19125975 955.84336701 -214.48632812 955.18701172 C-235.07512826 944.74349197 -254.78169879 932.59661101 -273.55078125 919.16796875 C-274.35773438 918.59159668 -275.1646875 918.01522461 -275.99609375 917.42138672 C-285.17031933 910.8372981 -294.11210697 904.08376145 -302.640625 896.6796875 C-305.42008896 894.2807676 -308.25168428 891.96782976 -311.11328125 889.66796875 C-316.10246543 885.60971107 -320.8274874 881.32281309 -325.53125 876.94140625 C-327.69873429 874.92669458 -329.91999157 872.99067703 -332.16796875 871.06640625 C-337.29730493 866.59411621 -342.10461729 861.80018419 -346.91381836 856.99023438 C-348.47686859 855.42936548 -350.0477549 853.87668987 -351.61914062 852.32421875 C-358.04952335 845.92922415 -363.89960405 839.27284601 -369.55078125 832.16796875 C-370.46240728 831.08984321 -371.38029961 830.01693263 -372.30859375 828.953125 C-384.52341676 814.90406289 -395.50723479 799.83322609 -405.55078125 784.16796875 C-405.99953613 783.47477539 -406.44829102 782.78158203 -406.91064453 782.06738281 C-418.38280604 764.32660273 -429.55238722 746.23196484 -438.61328125 727.12402344 C-439.59960881 725.06609209 -440.61984824 723.02736304 -441.64453125 720.98828125 C-467.56573212 668.76553286 -481.92247171 607.95841562 -487.55078125 550.16796875 C-487.68177467 548.83941612 -487.68177467 548.83941612 -487.81541443 547.48402405 C-488.51570422 539.82089571 -488.72562987 532.21600632 -488.75390625 524.5234375 C-488.76092056 523.24757278 -488.76793488 521.97170807 -488.77516174 520.65718079 C-488.79458967 516.55660513 -488.79959592 512.45608577 -488.80078125 508.35546875 C-488.80122311 507.65787445 -488.80166496 506.96028015 -488.80212021 506.24154663 C-488.80893644 485.74214002 -488.62101599 465.48674664 -485.55078125 445.16796875 C-485.37385742 443.95061035 -485.19693359 442.73325195 -485.01464844 441.47900391 C-475.32125825 375.94398511 -455.54408203 310.41663628 -421.55078125 253.16796875 C-421.0304834 252.28093262 -420.51018555 251.39389648 -419.97412109 250.47998047 C-412.15547141 237.18579532 -403.80697643 224.50015563 -394.55078125 212.16796875 C-393.70611282 211.02672085 -392.86229988 209.88483905 -392.01953125 208.7421875 C-384.85481631 199.08699802 -377.32044434 189.83493491 -369.41259766 180.78393555 C-366.08721502 176.97043667 -362.84778505 173.10992903 -359.67578125 169.16796875 C-356.73631999 165.53655402 -353.69693314 162.18121864 -350.32885742 158.94702148 C-348.56831471 157.18551184 -346.95252161 155.35863252 -345.3359375 153.46484375 C-341.59881829 149.16587412 -337.65156728 145.12038957 -333.61328125 141.10546875 C-332.94876953 140.43708984 -332.28425781 139.76871094 -331.59960938 139.08007812 C-327.08179671 134.5710294 -322.39769786 130.31929539 -317.55078125 126.16796875 C-316.54166116 125.29037091 -315.53254613 124.41276726 -314.5234375 123.53515625 C-305.79433965 116.05976776 -296.74754178 109.05699991 -287.55078125 102.16796875 C-286.89787109 101.6776416 -286.24496094 101.18731445 -285.57226562 100.68212891 C-245.94612723 71.00300125 -202.27948189 46.60053211 -155.55078125 30.16796875 C-154.44250977 29.77657715 -153.33423828 29.38518555 -152.19238281 28.98193359 C-104.12937434 12.24048496 -51.04395928 0.04854781 0 0 Z M-104.42578125 247.91796875 C-104.94011719 248.46066406 -105.45445312 249.00335938 -105.984375 249.5625 C-107.73486985 251.35664809 -109.58556317 252.97404381 -111.48828125 254.60546875 C-124.6863116 266.10949904 -134.49202267 279.65136005 -142.55078125 295.16796875 C-143.04723145 296.11397949 -143.04723145 296.11397949 -143.55371094 297.07910156 C-153.00438477 315.33834603 -158.51783494 334.88083214 -161.55078125 355.16796875 C-161.65390625 355.85584473 -161.75703125 356.5437207 -161.86328125 357.25244141 C-168.13608808 405.40743523 -153.44267216 452.77751315 -124.55078125 491.16796875 C-123.82375 492.14121094 -123.09671875 493.11445312 -122.34765625 494.1171875 C-93.87930165 530.46323565 -50.79604753 553.80548665 -5.10546875 559.47119141 C33.01495576 563.98732379 69.72480042 556.33336693 103.44921875 538.16796875 C104.05604492 537.84715332 104.66287109 537.52633789 105.28808594 537.19580078 C114.40742109 532.3506926 122.44546706 526.6380066 130.44921875 520.16796875 C131.81820312 519.10642578 131.81820312 519.10642578 133.21484375 518.0234375 C152.23980095 503.03154871 166.41162386 484.64724442 177.44921875 463.16796875 C177.96476318 462.18159424 177.96476318 462.18159424 178.49072266 461.17529297 C196.69573656 425.98690616 202.85057292 382.97461749 194.44921875 344.16796875 C194.28292969 343.3898584 194.11664062 342.61174805 193.9453125 341.81005859 C186.94222339 310.19889246 171.34548168 282.31876388 149.5859375 258.52734375 C147.73749896 256.48628913 145.9658699 254.40422593 144.19921875 252.29296875 C134.64304064 241.42472957 123.60591908 232.90879993 111.44921875 225.16796875 C110.58973633 224.61133545 110.58973633 224.61133545 109.71289062 224.04345703 C88.00663524 210.14709696 60.89120898 202.84336509 35.44921875 200.16796875 C34.68464355 200.08675781 33.92006836 200.00554687 33.13232422 199.921875 C-15.64456072 195.16009818 -69.67887893 212.69616572 -104.42578125 247.91796875 Z M-22.55078125 616.16796875 C-23.64616211 616.32394531 -24.74154297 616.47992187 -25.87011719 616.640625 C-60.02225934 621.58622885 -92.12929922 630.97505546 -123.55078125 645.16796875 C-124.76459473 645.71106689 -124.76459473 645.71106689 -126.00292969 646.26513672 C-150.4881047 657.28000012 -173.43800627 671.58861171 -194.55078125 688.16796875 C-195.370625 688.80734375 -196.19046875 689.44671875 -197.03515625 690.10546875 C-219.22285191 707.62950863 -238.66395811 726.43325592 -255.55078125 749.16796875 C-256.1020166 749.90499023 -256.65325195 750.64201172 -257.22119141 751.40136719 C-268.98671452 767.17401381 -279.0888497 783.76048986 -288.41503906 801.07666016 C-289.49859325 803.07187193 -290.61187247 805.04772833 -291.73046875 807.0234375 C-292.38052024 808.21656998 -293.02905395 809.41053115 -293.67578125 810.60546875 C-294.51496094 812.11947266 -294.51496094 812.11947266 -295.37109375 813.6640625 C-297.0548659 818.6652003 -297.70122998 822.96694404 -296.55078125 828.16796875 C-294.2569772 831.87456432 -291.32609061 834.62419432 -288.11328125 837.54296875 C-287.25669922 838.35878418 -286.40011719 839.17459961 -285.51757812 840.01513672 C-278.2181526 846.84792616 -270.45087372 852.94278076 -262.37255859 858.81591797 C-259.78838165 860.73379145 -257.32760676 862.78687435 -254.86328125 864.85546875 C-236.94994793 879.6312871 -216.81179708 891.91561895 -196.55078125 903.16796875 C-195.42518799 903.79566162 -195.42518799 903.79566162 -194.27685547 904.43603516 C-138.59739413 935.25150901 -74.83291129 951.2620586 -11.55078125 955.16796875 C-10.65198242 955.22581543 -9.75318359 955.28366211 -8.82714844 955.34326172 C82.34312524 961.05199123 172.66201712 939.29956618 292.44921875 862.16796875 C292.98724121 861.75611328 293.52526367 861.34425781 294.07958984 860.91992188 C302.87947534 854.17224375 311.41681078 847.15308724 319.67285156 839.74804688 C320.84131769 838.70869657 322.02019441 837.68091353 323.20996094 836.66601562 C324.83719065 835.27712226 326.42651018 833.85444361 328.01171875 832.41796875 C328.92050781 831.61875 329.82929687 830.81953125 330.765625 829.99609375 C332.63191987 826.86106478 332.64083183 826.35433403 331.96875 822.94921875 C330.52956624 817.96445177 328.63707847 813.17401903 326.57421875 808.41796875 C326.18129639 807.51111328 325.78837402 806.60425781 325.38354492 805.66992188 C307.73329653 765.97997437 277.80240495 725.73107849 243.5 698.609375 C241.26405338 696.82004512 239.09064972 695.00820034 236.9296875 693.1328125 C168.72466824 634.46737785 69.71961762 602.78562514 -22.55078125 616.16796875 Z " transform="translate(522.55078125,33.83203125)" style="fill: #D4D4D4;"/></svg>