<?xml version="1.0" encoding="UTF-8"?>
<!-- Generator: visioncortex VTracer -->
<svg id="svg" version="1.1" xmlns="http://www.w3.org/2000/svg" style="display: block;" viewBox="0 0 1080 1080"><path d="M0 0 C0.76715332 0.33950684 1.53430664 0.67901367 2.32470703 1.02880859 C47.72479906 21.21665601 97.46168372 53.93371008 116.79345703 101.97167969 C126.39963193 127.73570638 126.65585205 154.76095453 115.2109375 180.078125 C104.00729725 203.71129251 87.551935 222.89629203 67 239 C66.03835938 239.77859375 65.07671875 240.5571875 64.0859375 241.359375 C28.52283796 269.6297883 -14.09254855 286.49692436 -57 300 C-58.13453613 300.35964844 -59.26907227 300.71929687 -60.43798828 301.08984375 C-108.06778525 316.04783769 -158.28383814 322.98764547 -208 326 C-208.93086426 326.05784668 -209.86172852 326.11569336 -210.82080078 326.17529297 C-296.53036733 331.25426676 -383.56012856 320.98418182 -502 279 C-503.26384521 278.43418213 -503.26384521 278.43418213 -504.55322266 277.85693359 C-549.90072855 257.40401158 -599.42376226 225.16052185 -618.79345703 177.02832031 C-628.09594757 152.07878348 -628.8481486 125.62398335 -618.08349609 100.89453125 C-615.89660872 96.16919497 -613.49952392 91.56646254 -611 87 C-610.48308594 86.05125 -609.96617187 85.1025 -609.43359375 84.125 C-599.53186556 66.85768108 -584.48674567 52.25437339 -569 40 C-568.03449219 39.21753906 -567.06898438 38.43507813 -566.07421875 37.62890625 C-492.37576712 -20.89908901 -389.84741148 -40.57996508 -294 -47 C-292.90010742 -47.07202637 -291.80021484 -47.14405273 -290.66699219 -47.21826172 C-205.24490386 -52.48209423 -118.14167769 -41.87080819 0 0 Z " transform="translate(791,88)" style="fill: #D4D4D4;"/><path d="M0 0 C1.43395077 0.78969613 2.86705518 1.58092923 4.29980469 2.37280273 C5.09795593 2.81325424 5.89610718 3.25370575 6.71844482 3.70750427 C9.64971199 5.36806034 12.44565178 7.19652984 15.25 9.0625 C28.92897376 17.99316239 43.26236087 25.96224241 57.98681641 33.03027344 C60.08506222 34.04097346 62.17328377 35.07075957 64.26171875 36.1015625 C99.81955453 53.48866919 137.44920263 65.82412369 175.76928711 75.44006348 C177.92852509 75.98205891 180.08633612 76.52947914 182.24414062 77.07714844 C229.54799469 89.00087876 278.33827935 95.26636285 327 98 C327.99209473 98.05784668 328.98418945 98.11569336 330.00634766 98.17529297 C389.37492216 101.48610045 449.26239846 98.0113836 508 89 C508.7696106 88.88203064 509.53922119 88.76406128 510.33215332 88.64251709 C549.90584753 82.51853622 589.10311609 72.96086573 627 60 C628.24797363 59.57396484 629.49594727 59.14792969 630.78173828 58.70898438 C654.61260046 50.50874453 677.83567059 40.61422595 700.18408203 28.94482422 C702.11462866 27.94035857 704.05496109 26.95649249 705.99609375 25.97265625 C720.31569764 18.63646313 733.99436344 10.14916244 747.28515625 1.09057617 C749 0 749 0 750 0 C750.0465012 13.57887884 750.08195919 27.15773849 750.10362434 40.73668098 C750.11402662 47.04307 750.12812041 53.34940423 750.15087891 59.65576172 C750.17273465 65.75065519 750.18459532 71.84549621 750.18975449 77.94042587 C750.1934275 80.25662943 750.20059947 82.57283038 750.21146011 84.88901138 C750.39338839 125.32464606 737.58846017 156.11044568 709.25 184.9375 C688.04949243 205.92255526 662.43805151 220.6985173 636 234 C635.2054541 234.40460449 634.4109082 234.80920898 633.59228516 235.22607422 C575.68979624 264.55883216 508.21081956 278.09227866 444 284 C442.80761719 284.11037598 441.61523438 284.22075195 440.38671875 284.33447266 C432.9308313 285.00470036 425.4726214 285.55501346 418 286 C416.547146 286.08677002 416.547146 286.08677002 415.06494141 286.17529297 C329.84458421 290.9770419 242.46039599 281.70600927 49.375 192.84765625 C46.67723917 190.40381151 44.03703271 187.90444452 41.42285156 185.37158203 C40.0975392 184.09402458 38.74881937 182.8408732 37.3984375 181.58984375 C20.30166832 165.33434416 6.57842746 143.31309589 2 120 C1.82881149 119.13413773 1.65762299 118.26827545 1.48124695 117.37617493 C-0.5333818 105.43940452 -0.25190532 93.51450421 -0.1953125 81.4453125 C-0.19157553 79.08877686 -0.18873179 76.73223966 -0.18673706 74.3757019 C-0.17915445 68.21746418 -0.15955292 62.05932301 -0.1373291 55.90112305 C-0.11675407 49.59945989 -0.10771057 43.29778092 -0.09765625 36.99609375 C-0.07630129 24.66402042 -0.0422313 12.33201829 0 0 Z " transform="translate(165,753)" style="fill: #D4D4D4;"/><path d="M0 0 C4.13847776 1.58487465 7.54933245 3.54458077 11.25 6 C18.64235895 10.83460275 26.19510549 15.3499513 33.84960938 19.75585938 C35.88266254 20.93211266 37.90246484 22.12865625 39.921875 23.328125 C63.78307953 37.27067982 89.97865422 47.87507182 116 57 C116.66590149 57.23485107 117.33180298 57.46970215 118.0178833 57.71166992 C198.77880797 86.12609457 284.9036834 98.51300142 370.33398438 98.26074219 C374.22196994 98.24934882 378.10968146 98.25615575 381.99765778 98.26761341 C410.91598568 98.33988343 439.76738123 97.25242367 468.5 93.8125 C469.39702637 93.70773346 470.29405273 93.60296692 471.21826172 93.49502563 C504.4956079 89.58878405 537.4612286 84.01508151 570 76 C570.73784729 75.81886658 571.47569458 75.63773315 572.23590088 75.45111084 C606.01320251 67.12104337 639.41029097 56.5695203 671.16357422 42.27490234 C673.99708382 41.00131075 676.84251858 39.75828471 679.69140625 38.51953125 C702.28181288 28.60025323 725.108721 16.71489174 745.03515625 2.08984375 C748 0 748 0 750 0 C750.06991227 13.3621222 750.12301879 26.72419995 750.15543652 40.0864687 C750.17100559 46.29298232 750.19208146 52.4993696 750.22631836 58.70581055 C750.25922715 64.70995998 750.27691862 70.7139889 750.28463173 76.71822166 C750.29011923 78.99401938 750.30083247 81.26981148 750.31719017 83.54555702 C750.45443497 103.45507178 749.14508474 121.64954671 741 140 C740.4740625 141.19238281 739.948125 142.38476562 739.40625 143.61328125 C733.16807553 156.83997665 724.5885992 168.0327182 714.45947266 178.48925781 C712.96208185 180.03925017 711.48738082 181.60902163 710.01171875 183.1796875 C701.76241411 191.82262038 692.64595405 198.98063192 683 206 C681.62521484 207.01707031 681.62521484 207.01707031 680.22265625 208.0546875 C666.93119374 217.65284845 652.34785979 225.19668954 637.76171875 232.59814453 C636.0633203 233.46025591 634.36741366 234.32732356 632.67578125 235.20263672 C577.19560232 263.81434102 511.59726306 276.7216734 450 283 C449.27858826 283.0751886 448.55717651 283.1503772 447.81390381 283.22784424 C398.85815014 288.2867623 347.93438736 288.27731267 299 283 C298.20706543 282.91514343 297.41413086 282.83028687 296.59716797 282.74285889 C216.51004992 274.06218601 129.14716533 253.58050469 64 204 C63.44473633 203.5860498 62.88947266 203.17209961 62.31738281 202.74560547 C48.5092192 192.43860115 35.26244706 180.91619767 25 167 C24.25492188 166.00871094 23.50984375 165.01742187 22.7421875 163.99609375 C7.89650194 143.48891793 -0.20855375 120.59082816 -0.11352539 95.24780273 C-0.11367142 94.21261002 -0.11381744 93.1774173 -0.1139679 92.1108551 C-0.113276 88.71841269 -0.10551771 85.32602647 -0.09765625 81.93359375 C-0.0957895 79.56991099 -0.09436681 77.20622784 -0.09336853 74.84254456 C-0.08956361 68.6431673 -0.07975072 62.44381374 -0.06866455 56.2444458 C-0.05840678 49.90971192 -0.05386158 43.57497418 -0.04882812 37.24023438 C-0.03812654 24.82681255 -0.02107458 12.41340825 0 0 Z " transform="translate(165,441)" style="fill: #D4D4D4;"/></svg>